<?xml version="1.0" encoding="utf-8"?>
<!-- Generator: Adobe Illustrator 24.1.3, SVG Export Plug-In . SVG Version: 6.00 Build 0)  -->
<svg version="1.1" xmlns="http://www.w3.org/2000/svg" xmlns:xlink="http://www.w3.org/1999/xlink" x="0px" y="0px"
	 viewBox="0 0 200 147.9" style="enable-background:new 0 0 200 147.9;" xml:space="preserve">
<style type="text/css">
	.st0{fill:#FFFFFF;}
</style>
<g id="CIRCLE">
	<g>
		<path class="st0" d="M100,0C69.91,0,45.52,24.39,45.52,54.48s24.39,54.48,54.48,54.48s54.48-24.39,54.48-54.48S130.09,0,100,0z
			 M100,100.25c-25.28,0-45.77-20.49-45.77-45.77S74.72,8.71,100,8.71s45.77,20.49,45.77,45.77S125.28,100.25,100,100.25z"/>
		<path class="st0" d="M100,11.05c-23.98,0-43.43,19.44-43.43,43.43c0,23.98,19.44,43.43,43.43,43.43
			c23.98,0,43.43-19.44,43.43-43.43C143.43,30.49,123.98,11.05,100,11.05z M100,95.18c-22.48,0-40.7-18.22-40.7-40.7
			s18.22-40.7,40.7-40.7s40.7,18.22,40.7,40.7S122.48,95.18,100,95.18z"/>
		<path class="st0" d="M100,16.51c-20.97,0-37.97,17-37.97,37.97s17,37.97,37.97,37.97c20.97,0,37.97-17,37.97-37.97
			S120.97,16.51,100,16.51z M100,89.07c-19.1,0-34.59-15.48-34.59-34.59S80.9,19.89,100,19.89s34.59,15.48,34.59,34.59
			S119.1,89.07,100,89.07z"/>
		<path class="st0" d="M100,23.14c-17.31,0-31.34,14.03-31.34,31.34S82.69,85.81,100,85.81c17.31,0,31.34-14.03,31.34-31.34
			S117.31,23.14,100,23.14z M100,76.19c-11.99,0-21.71-9.72-21.71-21.71S88.01,32.77,100,32.77c11.99,0,21.71,9.72,21.71,21.71
			S111.99,76.19,100,76.19z"/>
	</g>
</g>
<g id="DJ">
	<path class="st0" d="M173.68,124.64c-0.51-2.19-0.19-1.66-2.78-4.4c-2.57-2.73-6.14-7.16-7.42-11.27l3.13-1.94
		c0,0-1.96-1.86-0.88-8.74c1.09-6.88,0.67-13.8,0.67-13.8s-4.39-0.67-5.89-4.7c-1.5-4.03-2.02-4.19-8.94-4.86
		c-6.93-0.67-4.39-4.34-10.96-7.34c-6.57-3-13.86-7.14-15.05-9c-1.19-1.86-9.62,0.26-12.36-0.1c-0.21-0.03-0.4-0.08-0.57-0.16
		c0.02-0.52,0.01-1.06-0.03-1.64c0.31-0.77,0.52-1.83,0.45-3.28c-0.12-2.75-0.95-4.05-2.3-4.54c-0.63-1.4-1.37-2.46-2.16-2.84
		c-0.39-0.19-0.77-0.31-1.15-0.38c-0.68-2.38-2.36-6.85-6.06-10.12c-5.27-4.65-17.45-7.13-25.44-0.7c-3.38,2.72-5.89,6.4-7.2,10.29
		c-2.1,1.54-4.01,1.98-5.9,1.47c0,0,2.25,1.86,5,2.43c-0.02,0.12-0.03,0.25-0.04,0.37c-0.69,0.03-1.47,0.01-2.12-0.16
		c0,0,0.92,0.5,2.06,0.88c-0.17,2.77,0.32,5.48,1.59,7.89c-0.07,0.07-0.14,0.14-0.21,0.22c-0.25,0.28-0.18,1.09,0.13,2.19
		c-0.63,1.51-1.47,4.87,1.31,8.51c2.28,2.99,4.96,4.39,6.72,5.03l-1.95,1.29c0,0-0.43,6.13-3.14,8.76s-7.37,2.4-8.61,4.92
		c-1.24,2.52-0.43,3.49-3.8,3.8c-3.37,0.31-4.3,4.42-7.06,4.69c-2.75,0.27-3.06-0.16-3.06-0.16l-0.58,1.55c0,0,0.08,0.08,0.23,0.22
		c-4.27,0.21-9.88-0.29-9.88-0.29s-0.77,1.21-2.01,2.75c-0.61-0.09-1.22-0.18-1.84-0.26c-18.91-2.57-34.82-0.34-35.55,4.98
		c-0.72,5.32,14.02,11.72,32.93,14.3c18.91,2.57,34.82,0.34,35.55-4.98c0.44-3.25-4.89-6.91-13.42-9.85l0.93-1.13
		c0.46,0.28,0.88,0.49,1.21,0.59c2.25,0.66-0.08-0.97,1.67-2.17c1.74-1.2,5.74-3.14,9.23-3.49c3.49-0.35,0.39-1.78,4.92-2.87
		c4.54-1.09,2.64-2.09,5.58-2.09c2.95,0,4.65,0.97,6.36-0.7c1.71-1.67,1.9-0.4,4.02-1.09c2.12-0.68,4.6,0.61,7.81,4.43
		c3.21,3.83,2.61,6.7,4.73,7.21c2.12,0.52-1.53,0.83,0.03,1.89c1.55,1.06-1.21,0.83,0.03,2.64l-1.16,0.88c0,0,0.83,0.98-0.67,3.77
		c-1.5,2.79-3.41,5.02-3.41,5.02l1.6,4.6c0,0,12.67,5.17,19.85,4.7c1.98-0.13,4.25-0.59,6.51-1.2c-4.64,1.74-7.42,3.99-7.56,6.57
		c-0.36,6.83,17.98,13.35,40.96,14.56c22.98,1.21,41.91-3.34,42.27-10.16C200.27,132.34,189.32,127.23,173.68,124.64z M57.05,107.66
		c5.64,2.45,8.57,5.08,8.25,7.42c-0.32,2.33-3.84,4.09-9.93,4.94s-14,0.7-22.3-0.43c-8.29-1.13-15.96-3.1-21.6-5.54
		c-5.64-2.45-8.57-5.08-8.25-7.42c0.32-2.33,3.84-4.09,9.93-4.94c6.09-0.85,14-0.7,22.3,0.43c0.43,0.06,0.85,0.12,1.28,0.18
		c-0.01,0.01-0.01,0.01-0.02,0.02c-0.42-0.06-0.84-0.12-1.27-0.18c-17.07-2.32-31.5-0.3-32.15,4.51S16,117.25,33.08,119.57
		c17.07,2.32,31.5,0.3,32.15-4.51c0.38-2.78-3.92-5.89-10.92-8.47l0.02-0.02C55.28,106.93,56.19,107.29,57.05,107.66z M41.05,110.57
		c0.47,0.59,2.35,0.26,2.61,0.21c0.14-0.03,0.61-0.55,1.32-1.13c2.12,0.99,3.34,2.1,3.2,3.1c-0.29,2.16-6.77,3.07-14.46,2.03
		c-7.69-1.05-13.68-3.65-13.39-5.81c0.26-1.88,5.17-2.81,11.5-2.34c-0.08,0.05-0.16,0.1-0.25,0.14c-4.24,2.35-4.99,3.05-4.29,3.93
		c0.7,0.88,2.64-0.23,2.64-0.23l-0.23,1.24c0,0,1.09,0.47,3.7-0.26c2.21-0.61,5.01-2.99,5.82-3.7c0.98,0.23,1.9,0.48,2.76,0.75
		c-0.58,0.28-1.06,0.39-1.06,0.39S40.59,109.97,41.05,110.57z M32.97,105.87c-8.43-0.87-15.25,0.25-15.58,2.69
		c-0.36,2.62,6.92,5.78,16.23,7.05c9.3,1.27,17.16,0.16,17.52-2.45c0.19-1.39-1.78-2.94-5.06-4.27c0.01-0.01,0.02-0.01,0.03-0.02
		c3.31,1.34,5.3,2.9,5.1,4.3c-0.36,2.63-8.25,3.74-17.6,2.47c-9.34-1.27-16.66-4.45-16.3-7.08c0.33-2.45,7.2-3.58,15.68-2.69
		C32.99,105.86,32.98,105.87,32.97,105.87z M43.05,107.83c-0.71-0.21-1.45-0.42-2.22-0.61l0.05-0.01c0.76,0.19,1.5,0.39,2.2,0.6
		C43.07,107.82,43.06,107.82,43.05,107.83z M33.05,105.82c-8.58-0.9-15.53,0.24-15.87,2.71c-0.36,2.65,7.01,5.85,16.43,7.13
		s17.38,0.17,17.74-2.49c0.19-1.42-1.83-2.99-5.19-4.35c0.01-0.01,0.02-0.01,0.03-0.02c3.39,1.36,5.42,2.95,5.23,4.37
		c-0.36,2.66-8.35,3.78-17.81,2.5c-9.46-1.29-16.86-4.5-16.5-7.16c0.34-2.49,7.33-3.63,15.96-2.72
		C33.06,105.81,33.05,105.82,33.05,105.82z M43.11,107.78c-0.69-0.21-1.4-0.4-2.15-0.59l0.05-0.01c0.74,0.18,1.45,0.38,2.12,0.58
		C43.13,107.76,43.12,107.77,43.11,107.78z M33.12,105.77c-8.73-0.93-15.81,0.22-16.15,2.74c-0.37,2.69,7.1,5.92,16.63,7.22
		c9.54,1.3,17.59,0.17,17.96-2.52c0.2-1.44-1.87-3.05-5.31-4.43c0.01-0.01,0.02-0.01,0.03-0.02c3.46,1.38,5.55,3,5.35,4.45
		c-0.37,2.7-8.46,3.83-18.03,2.53c-9.58-1.3-17.07-4.56-16.7-7.25c0.34-2.53,7.47-3.68,16.25-2.74
		C33.14,105.76,33.13,105.76,33.12,105.77z M43.17,107.72c-0.66-0.2-1.36-0.39-2.07-0.56l0.05-0.01c0.71,0.18,1.39,0.36,2.05,0.56
		C43.19,107.71,43.18,107.72,43.17,107.72z M33.19,105.71c-8.88-0.96-16.09,0.21-16.44,2.76c-0.37,2.72,7.18,6,16.84,7.31
		c9.66,1.31,17.81,0.17,18.18-2.55c0.2-1.47-1.92-3.1-5.44-4.5c0.01-0.01,0.02-0.01,0.03-0.02c3.54,1.41,5.68,3.05,5.48,4.53
		c-0.37,2.73-8.56,3.88-18.26,2.56c-9.7-1.32-17.28-4.61-16.91-7.34c0.35-2.57,7.61-3.73,16.54-2.77
		C33.21,105.7,33.2,105.71,33.19,105.71z M43.23,107.67c-0.64-0.19-1.3-0.37-1.99-0.54l0.05-0.01c0.68,0.17,1.34,0.35,1.96,0.53
		C43.25,107.66,43.24,107.66,43.23,107.67z M33.26,105.66c-9.02-0.98-16.37,0.19-16.73,2.78c-0.37,2.75,7.27,6.07,17.05,7.4
		c9.78,1.33,18.03,0.17,18.41-2.58c0.2-1.5-1.97-3.16-5.56-4.58c0.01-0.01,0.02-0.01,0.03-0.02c3.62,1.43,5.81,3.1,5.6,4.61
		c-0.38,2.76-8.67,3.93-18.48,2.59c-9.82-1.34-17.5-4.67-17.12-7.43c0.35-2.61,7.75-3.79,16.82-2.79
		C33.28,105.65,33.27,105.65,33.26,105.66z M43.29,107.61c-0.61-0.18-1.25-0.35-1.91-0.52l0.05-0.01c0.65,0.16,1.28,0.33,1.88,0.51
		C43.3,107.6,43.3,107.61,43.29,107.61z M33.33,105.6c-9.17-1.01-16.66,0.18-17.02,2.81c-0.38,2.79,7.37,6.15,17.26,7.5
		c9.9,1.35,18.26,0.17,18.64-2.61c0.21-1.52-2.01-3.22-5.68-4.66c0.01-0.01,0.02-0.01,0.03-0.02c3.7,1.45,5.93,3.15,5.72,4.69
		c-0.38,2.8-8.78,3.97-18.71,2.62c-9.94-1.35-17.71-4.73-17.33-7.53c0.36-2.65,7.89-3.84,17.11-2.82
		C33.35,105.59,33.34,105.6,33.33,105.6z M43.35,107.56c-0.59-0.17-1.2-0.34-1.82-0.49l0.05-0.01c0.62,0.16,1.22,0.32,1.79,0.49
		C43.36,107.54,43.35,107.55,43.35,107.56z M33.4,105.55c-9.33-1.04-16.95,0.16-17.31,2.84c-0.38,2.82,7.46,6.23,17.48,7.59
		c10.02,1.36,18.49,0.18,18.87-2.64c0.21-1.55-2.06-3.27-5.81-4.74c0.01-0.01,0.02-0.01,0.03-0.02c3.77,1.47,6.06,3.21,5.85,4.76
		c-0.39,2.83-8.88,4.02-18.95,2.65c-10.06-1.37-17.93-4.79-17.55-7.62c0.37-2.69,8.03-3.9,17.41-2.84
		C33.42,105.54,33.41,105.54,33.4,105.55z M43.4,107.5c-0.56-0.16-1.14-0.32-1.73-0.47l0.05-0.01c0.58,0.15,1.15,0.3,1.7,0.46
		C43.41,107.49,43.41,107.49,43.4,107.5z M33.48,105.49c-9.48-1.07-17.24,0.15-17.61,2.86c-0.39,2.86,7.55,6.3,17.7,7.68
		c10.15,1.38,18.72,0.18,19.1-2.68c0.21-1.58-2.11-3.33-5.93-4.82c0.01-0.01,0.02-0.01,0.04-0.01c3.85,1.5,6.19,3.26,5.97,4.84
		c-0.39,2.87-8.99,4.07-19.18,2.69c-10.19-1.39-18.16-4.85-17.77-7.71c0.37-2.73,8.18-3.95,17.71-2.87
		C33.49,105.48,33.48,105.49,33.48,105.49z M43.45,107.44c-0.53-0.15-1.08-0.3-1.64-0.45l0.05-0.01c0.55,0.14,1.09,0.29,1.61,0.44
		C43.46,107.43,43.46,107.43,43.45,107.44z M33.55,105.43c-9.64-1.1-17.54,0.13-17.91,2.89c-0.39,2.89,7.64,6.38,17.92,7.78
		c10.27,1.4,18.95,0.18,19.34-2.71c0.22-1.6-2.15-3.38-6.05-4.9c0.01-0.01,0.02-0.01,0.04-0.02c3.92,1.52,6.31,3.31,6.09,4.92
		c-0.39,2.9-9.11,4.12-19.42,2.72c-10.31-1.4-18.38-4.91-17.99-7.81c0.38-2.77,8.32-4.01,18.01-2.9
		C33.56,105.42,33.56,105.43,33.55,105.43z M43.51,107.38c-0.5-0.14-1.01-0.28-1.54-0.42l0.05-0.01c0.52,0.13,1.02,0.27,1.51,0.41
		C43.52,107.36,43.51,107.37,43.51,107.38z M33.62,105.38c-9.79-1.13-17.84,0.12-18.22,2.91c-0.4,2.93,7.74,6.46,18.14,7.88
		c10.4,1.41,19.18,0.18,19.58-2.74c0.22-1.63-2.19-3.44-6.17-4.97c0.01,0,0.02-0.01,0.04-0.01c4,1.54,6.43,3.36,6.21,5
		c-0.4,2.94-9.22,4.17-19.66,2.75c-10.44-1.42-18.61-4.97-18.21-7.91c0.38-2.81,8.47-4.06,18.31-2.92
		C33.63,105.36,33.63,105.37,33.62,105.38z M43.55,107.32c-0.47-0.13-0.95-0.27-1.44-0.39l0.05-0.01c0.48,0.12,0.95,0.25,1.41,0.38
		C43.57,107.3,43.56,107.31,43.55,107.32z M33.69,105.32c-9.95-1.16-18.14,0.1-18.52,2.94c-0.4,2.96,7.83,6.54,18.36,7.97
		c10.53,1.43,19.42,0.19,19.83-2.78c0.22-1.65-2.24-3.5-6.29-5.05c0.01,0,0.03-0.01,0.04-0.01c4.07,1.56,6.55,3.42,6.32,5.08
		c-0.4,2.98-9.33,4.23-19.9,2.79c-10.57-1.44-18.84-5.03-18.43-8c0.39-2.85,8.62-4.12,18.62-2.95
		C33.71,105.3,33.7,105.31,33.69,105.32z M43.6,107.25c-0.44-0.12-0.88-0.25-1.34-0.36l0.05-0.01c0.45,0.11,0.88,0.23,1.31,0.35
		C43.61,107.24,43.61,107.25,43.6,107.25z M33.76,105.26c-10.11-1.19-18.44,0.09-18.84,2.97c-0.41,3,7.93,6.62,18.59,8.07
		c10.66,1.45,19.67,0.19,20.07-2.81c0.23-1.68-2.28-3.55-6.4-5.13c0.01-0.01,0.03-0.01,0.04-0.01c0.44,0.17,0.86,0.34,1.27,0.52
		c3.52,1.53,5.36,3.18,5.16,4.64c-0.2,1.46-2.4,2.56-6.21,3.09c-3.81,0.53-8.76,0.44-13.94-0.27c-10.7-1.46-19.07-5.09-18.66-8.1
		c0.39-2.9,8.77-4.18,18.93-2.98C33.78,105.24,33.77,105.25,33.76,105.26z M43.65,107.19c-0.4-0.11-0.81-0.23-1.23-0.33l0.05-0.01
		c0.41,0.1,0.8,0.21,1.19,0.32C43.66,107.17,43.66,107.18,43.65,107.19z M33.84,105.2c-10.27-1.22-18.75,0.07-19.15,3
		c-0.41,3.04,8.03,6.71,18.82,8.17c10.79,1.47,19.91,0.19,20.32-2.85c0.23-1.7-2.32-3.6-6.51-5.2c0.01,0,0.03-0.01,0.04-0.01
		c0.46,0.17,0.9,0.35,1.32,0.54c3.57,1.55,5.42,3.22,5.22,4.69c-0.2,1.48-2.43,2.59-6.29,3.13c-3.85,0.54-8.86,0.44-14.11-0.27
		c-5.25-0.71-10.1-1.96-13.67-3.51c-3.57-1.55-5.42-3.22-5.22-4.69c0.2-1.48,2.43-2.59,6.29-3.13c3.57-0.5,8.13-0.45,12.96,0.12
		C33.85,105.18,33.84,105.19,33.84,105.2z M43.7,107.12c-0.37-0.1-0.74-0.21-1.12-0.3l0.05-0.01c0.37,0.1,0.73,0.19,1.09,0.29
		C43.71,107.11,43.7,107.11,43.7,107.12z M33.91,105.13c-10.44-1.25-19.06,0.05-19.47,3.03c-0.42,3.08,8.13,6.79,19.06,8.28
		c10.93,1.49,20.16,0.19,20.58-2.88c0.24-1.73-2.36-3.66-6.62-5.28c0,0,0.01,0,0.01,0c0.01,0,0.03-0.01,0.04-0.01
		c0.47,0.18,0.93,0.36,1.36,0.55c3.61,1.57,5.49,3.26,5.29,4.75c-0.2,1.5-2.46,2.62-6.36,3.17c-3.9,0.55-8.97,0.45-14.29-0.27
		c-5.31-0.72-10.23-1.98-13.84-3.55c-3.61-1.57-5.49-3.26-5.29-4.75c0.2-1.5,2.46-2.62,6.36-3.17c3.63-0.51,8.28-0.46,13.19,0.13
		C33.92,105.12,33.92,105.13,33.91,105.13z M43.74,107.05c-0.33-0.09-0.67-0.18-1.01-0.27l0.05-0.01c0.33,0.09,0.65,0.17,0.97,0.26
		C43.75,107.04,43.74,107.05,43.74,107.05z M33.98,105.07c-10.6-1.29-19.37,0.04-19.78,3.05c-0.42,3.11,8.23,6.87,19.3,8.38
		c11.06,1.51,20.41,0.2,20.83-2.92c0.24-1.75-2.4-3.71-6.72-5.35c0.02,0,0.03-0.01,0.05-0.01c0.48,0.18,0.95,0.37,1.39,0.57
		c3.66,1.59,5.56,3.3,5.35,4.81c-0.21,1.51-2.49,2.65-6.44,3.21c-3.95,0.55-9.09,0.46-14.46-0.28s-10.36-2.01-14.01-3.6
		c-3.66-1.59-5.56-3.3-5.35-4.81c0.21-1.51,2.49-2.65,6.44-3.21c3.7-0.52,8.43-0.46,13.43,0.14C34,105.06,33.99,105.07,33.98,105.07
		z M43.78,106.98c-0.29-0.08-0.59-0.16-0.89-0.24l0.05-0.01c0.29,0.08,0.57,0.15,0.85,0.23C43.79,106.97,43.78,106.98,43.78,106.98z
		 M34.06,105.01c-10.77-1.32-19.69,0.02-20.11,3.08c-0.43,3.15,8.33,6.96,19.54,8.48c11.2,1.52,20.66,0.2,21.09-2.96
		c0.24-1.78-2.43-3.76-6.82-5.43c0.02,0,0.03-0.01,0.05-0.01c0.49,0.19,0.97,0.38,1.42,0.58c3.7,1.61,5.63,3.34,5.42,4.87
		c-0.21,1.53-2.53,2.69-6.52,3.25s-9.2,0.46-14.64-0.28c-5.45-0.74-10.48-2.03-14.19-3.64c-3.7-1.61-5.63-3.34-5.42-4.87
		c0.21-1.53,2.53-2.69,6.52-3.25c3.76-0.53,8.59-0.47,13.68,0.16C34.07,105,34.06,105,34.06,105.01z M43.82,106.91
		c-0.25-0.07-0.51-0.14-0.77-0.21l0.05-0.01c0.25,0.06,0.49,0.13,0.73,0.2C43.83,106.9,43.82,106.91,43.82,106.91z M34.13,104.95
		c-10.93-1.35-20.01,0.01-20.43,3.11c-0.43,3.19,8.44,7.05,19.78,8.59c11.34,1.54,20.92,0.2,21.35-2.99c0.24-1.8-2.47-3.81-6.91-5.5
		c0.02,0,0.04-0.01,0.06-0.01c0.5,0.19,0.98,0.39,1.44,0.59c3.75,1.63,5.7,3.38,5.49,4.93c-0.21,1.55-2.56,2.72-6.6,3.29
		c-4.05,0.57-9.31,0.47-14.83-0.28c-5.51-0.75-10.61-2.06-14.36-3.69c-3.75-1.63-5.7-3.38-5.49-4.93c0.21-1.55,2.56-2.72,6.6-3.29
		c3.83-0.54,8.74-0.47,13.92,0.17C34.14,104.93,34.14,104.94,34.13,104.95z M43.86,106.84c-0.21-0.06-0.43-0.12-0.65-0.17l0.05-0.01
		c0.2,0.05,0.41,0.11,0.61,0.16C43.86,106.83,43.86,106.83,43.86,106.84z M34.2,104.88c-11.1-1.38-20.33-0.01-20.76,3.14
		c-0.44,3.23,8.54,7.13,20.02,8.69c11.48,1.56,21.18,0.2,21.62-3.03c0.25-1.82-2.5-3.86-7-5.56c0.02,0,0.04-0.01,0.06-0.01
		c0.51,0.19,0.99,0.39,1.46,0.59c3.8,1.65,5.77,3.42,5.55,4.99c-0.21,1.57-2.59,2.75-6.69,3.33c-4.1,0.57-9.43,0.47-15.01-0.29
		c-5.58-0.76-10.75-2.08-14.54-3.73c-3.8-1.65-5.77-3.42-5.55-4.99c0.21-1.57,2.59-2.75,6.69-3.33c3.89-0.55,8.9-0.48,14.17,0.18
		C34.22,104.87,34.21,104.88,34.2,104.88z M43.89,106.77c-0.17-0.05-0.34-0.09-0.52-0.14l0.05-0.01c0.16,0.04,0.32,0.08,0.48,0.13
		C43.9,106.75,43.89,106.76,43.89,106.77z M34.28,104.82c-11.27-1.41-20.66-0.03-21.1,3.17c-0.45,3.27,8.65,7.22,20.27,8.8
		c11.62,1.58,21.44,0.21,21.89-3.07c0.25-1.84-2.53-3.9-7.08-5.63c0.02,0,0.04-0.01,0.06-0.01c0.51,0.19,1,0.39,1.47,0.6
		c3.84,1.67,5.84,3.46,5.62,5.05c-0.22,1.59-2.62,2.79-6.77,3.37c-4.15,0.58-9.54,0.48-15.2-0.29c-5.65-0.77-10.88-2.11-14.72-3.78
		c-3.84-1.67-5.84-3.46-5.62-5.05c0.22-1.59,2.62-2.79,6.77-3.37c3.96-0.55,9.05-0.48,14.42,0.19
		C34.29,104.81,34.28,104.81,34.28,104.82z M43.92,106.69c-0.13-0.03-0.25-0.07-0.38-0.1l0.05-0.01c0.11,0.03,0.23,0.06,0.34,0.09
		C43.93,106.68,43.93,106.69,43.92,106.69z M34.35,104.75c-11.45-1.45-20.99-0.04-21.43,3.2c-0.45,3.31,8.76,7.31,20.53,8.91
		c11.77,1.6,21.71,0.21,22.16-3.11c0.25-1.86-2.55-3.95-7.15-5.69c0.02,0,0.04-0.01,0.06-0.01c0.51,0.19,1,0.39,1.47,0.6
		c3.89,1.69,5.91,3.51,5.69,5.12c-0.22,1.61-2.65,2.82-6.85,3.41c-4.2,0.59-9.66,0.48-15.38-0.29c-5.72-0.78-11.01-2.14-14.9-3.83
		c-3.89-1.69-5.91-3.51-5.69-5.12c0.22-1.61,2.65-2.82,6.85-3.41c4.02-0.56,9.21-0.49,14.67,0.2
		C34.36,104.74,34.36,104.75,34.35,104.75z M43.95,106.62c-0.08-0.02-0.16-0.04-0.25-0.07l0.05-0.01c0.07,0.02,0.14,0.04,0.2,0.05
		C43.96,106.6,43.96,106.61,43.95,106.62z M34.42,104.68c-11.62-1.48-21.32-0.06-21.77,3.23c-0.46,3.35,8.87,7.4,20.78,9.02
		c11.92,1.62,21.98,0.21,22.44-3.14c0.26-1.88-2.57-3.99-7.21-5.76c0.02,0,0.04-0.01,0.06-0.01c0.51,0.19,0.99,0.39,1.46,0.59
		c3.94,1.71,5.99,3.55,5.76,5.18c-0.22,1.63-2.69,2.86-6.94,3.45c-4.25,0.6-9.78,0.49-15.57-0.3c-5.79-0.79-11.15-2.16-15.09-3.87
		c-3.94-1.71-5.99-3.55-5.76-5.18c0.22-1.63,2.69-2.86,6.94-3.45c4.09-0.57,9.37-0.5,14.92,0.21
		C34.44,104.67,34.43,104.68,34.42,104.68z M43.98,106.54c-0.03-0.01-0.07-0.02-0.1-0.03l0.05-0.01c0.02,0.01,0.04,0.01,0.06,0.02
		C43.99,106.53,43.98,106.53,43.98,106.54z M34.5,104.62c-11.8-1.51-21.66-0.08-22.11,3.26c-0.46,3.4,8.98,7.49,21.04,9.14
		c12.06,1.64,22.25,0.21,22.72-3.18c0.26-1.9-2.59-4.03-7.27-5.82c0.02,0,0.04,0,0.06-0.01c0.5,0.19,0.98,0.39,1.45,0.59
		c3.99,1.73,6.06,3.59,5.83,5.24c-0.22,1.65-2.72,2.89-7.02,3.5c-4.3,0.6-9.9,0.5-15.77-0.3c-5.86-0.8-11.29-2.19-15.28-3.92
		c-3.99-1.73-6.06-3.59-5.83-5.24c0.22-1.65,2.72-2.89,7.02-3.5c4.16-0.58,9.53-0.5,15.18,0.23
		C34.51,104.61,34.5,104.61,34.5,104.62z M34.57,104.55c-11.98-1.55-22-0.09-22.46,3.29c-0.47,3.44,9.09,7.59,21.3,9.25
		c12.21,1.66,22.53,0.22,23-3.22c0.26-1.92-2.61-4.07-7.33-5.87c0.02,0,0.04,0,0.07-0.01c0.49,0.19,0.97,0.38,1.42,0.58
		c4.04,1.75,6.13,3.64,5.91,5.31c-0.23,1.67-2.75,2.93-7.11,3.54c-4.36,0.61-10.03,0.5-15.96-0.31c-5.94-0.81-11.43-2.22-15.46-3.97
		c-4.04-1.75-6.13-3.64-5.91-5.31c0.23-1.67,2.75-2.93,7.11-3.54c4.23-0.59,9.7-0.51,15.44,0.24
		C34.59,104.54,34.58,104.54,34.57,104.55z M34.65,104.48c-12.16-1.58-22.34-0.11-22.81,3.33c-0.47,3.48,9.2,7.68,21.57,9.36
		c12.37,1.68,22.81,0.22,23.28-3.26c0.26-1.94-2.62-4.1-7.37-5.93c0.02,0,0.05,0,0.07,0c0.48,0.19,0.95,0.37,1.39,0.57
		c4.09,1.77,6.21,3.68,5.98,5.38c-0.23,1.69-2.79,2.96-7.2,3.58c-4.41,0.62-10.15,0.51-16.16-0.31c-6.01-0.82-11.57-2.24-15.66-4.02
		c-4.09-1.77-6.21-3.68-5.98-5.38c0.23-1.69,2.79-2.96,7.2-3.58c4.3-0.6,9.86-0.51,15.7,0.25
		C34.66,104.47,34.65,104.47,34.65,104.48z M34.72,104.41c-12.34-1.62-22.69-0.13-23.16,3.36c-0.48,3.52,9.32,7.78,21.84,9.48
		c12.52,1.7,23.1,0.22,23.57-3.3c0.27-1.96-2.63-4.14-7.41-5.98c0.02,0,0.05,0,0.07,0c0.47,0.18,0.92,0.36,1.36,0.55
		c4.14,1.8,6.29,3.73,6.05,5.44c-0.23,1.71-2.82,3-7.29,3.63c-4.47,0.63-10.28,0.51-16.36-0.31c-6.08-0.83-11.71-2.27-15.85-4.07
		c-4.14-1.8-6.29-3.73-6.05-5.44c0.23-1.71,2.82-3,7.29-3.63c4.37-0.61,10.03-0.52,15.97,0.26C34.73,104.4,34.73,104.4,34.72,104.41
		z M34.8,104.34c-12.52-1.65-23.04-0.15-23.52,3.39c-0.49,3.57,9.43,7.87,22.11,9.6c12.68,1.72,23.38,0.22,23.87-3.34
		c0.27-1.97-2.64-4.17-7.44-6.03c0.02,0,0.05,0,0.07,0c0.45,0.17,0.89,0.35,1.31,0.53c4.19,1.82,6.37,3.78,6.13,5.51
		c-0.24,1.73-2.86,3.04-7.38,3.67c-4.52,0.63-10.41,0.52-16.56-0.32c-6.16-0.84-11.86-2.3-16.05-4.12
		c-4.19-1.82-6.37-3.78-6.13-5.51c0.24-1.73,2.86-3.04,7.38-3.67c4.44-0.62,10.2-0.52,16.23,0.27
		C34.81,104.33,34.8,104.33,34.8,104.34z M34.87,104.27c-12.71-1.69-23.4-0.16-23.88,3.42c-0.49,3.61,9.55,7.97,22.38,9.72
		c12.83,1.75,23.67,0.23,24.16-3.39c0.27-1.99-2.65-4.2-7.46-6.08c0.02,0,0.05,0,0.07,0c0.43,0.17,0.85,0.34,1.25,0.51
		c4.24,1.84,6.44,3.82,6.21,5.58c-0.24,1.76-2.89,3.08-7.47,3.72c-4.58,0.64-10.53,0.53-16.77-0.32
		c-6.24-0.85-12.01-2.33-16.25-4.17c-4.24-1.84-6.44-3.82-6.21-5.58c0.24-1.76,2.89-3.08,7.47-3.72c4.51-0.63,10.37-0.53,16.5,0.29
		C34.89,104.25,34.88,104.26,34.87,104.27z M34.95,104.19c-12.9-1.72-23.76-0.18-24.25,3.46c-0.5,3.66,9.67,8.07,22.66,9.84
		c12.99,1.77,23.97,0.23,24.47-3.43c0.27-2-2.65-4.23-7.47-6.12c0.03,0,0.05,0,0.08,0c0.4,0.16,0.8,0.32,1.18,0.49
		c4.29,1.86,6.52,3.87,6.28,5.65c-0.24,1.78-2.93,3.11-7.56,3.76c-4.64,0.65-10.66,0.53-16.98-0.32
		c-6.31-0.86-12.15-2.36-16.45-4.22c-4.29-1.86-6.52-3.87-6.28-5.65c0.24-1.78,2.93-3.11,7.56-3.76c4.59-0.64,10.54-0.54,16.78,0.3
		C34.96,104.18,34.96,104.19,34.95,104.19z M35.03,104.12c-13.09-1.76-24.12-0.2-24.62,3.49c-0.5,3.7,9.79,8.17,22.94,9.96
		c13.15,1.79,24.27,0.23,24.77-3.47c0.27-2.01-2.64-4.25-7.47-6.16c0.03,0,0.05,0,0.08,0c0.38,0.15,0.75,0.3,1.11,0.46
		c4.35,1.89,6.61,3.92,6.36,5.72c-0.24,1.8-2.96,3.15-7.66,3.81c-4.69,0.66-10.8,0.54-17.19-0.33c-6.39-0.87-12.31-2.39-16.65-4.27
		c-4.35-1.89-6.61-3.92-6.36-5.72c0.24-1.8,2.96-3.15,7.66-3.81c4.66-0.65,10.71-0.54,17.05,0.31
		C35.04,104.11,35.03,104.11,35.03,104.12z M35.1,104.04c-13.28-1.79-24.48-0.22-24.99,3.53c-0.51,3.75,9.91,8.27,23.23,10.09
		c13.32,1.81,24.57,0.24,25.08-3.51c0.28-2.02-2.64-4.27-7.47-6.2c0.03,0,0.06,0,0.08,0c0.35,0.14,0.69,0.28,1.02,0.42
		c4.4,1.91,6.69,3.97,6.44,5.79c-0.25,1.82-3,3.19-7.75,3.86c-4.75,0.67-10.93,0.55-17.4-0.33c-6.47-0.88-12.46-2.42-16.86-4.33
		c-4.4-1.91-6.69-3.97-6.44-5.79c0.25-1.82,3-3.19,7.75-3.86c4.73-0.66,10.89-0.55,17.33,0.32
		C35.11,104.03,35.11,104.04,35.1,104.04z M35.18,103.97c-13.47-1.83-24.85-0.23-25.37,3.56c-0.52,3.8,10.03,8.38,23.52,10.21
		c13.48,1.83,24.87,0.24,25.39-3.56c0.28-2.03-2.63-4.29-7.46-6.24c0.03,0,0.06,0,0.09,0c0.31,0.13,0.62,0.25,0.92,0.38
		c4.45,1.93,6.77,4.02,6.52,5.86c-0.25,1.84-3.04,3.23-7.85,3.91c-4.81,0.67-11.07,0.55-17.62-0.34s-12.61-2.45-17.07-4.38
		c-4.45-1.93-6.77-4.02-6.52-5.86c0.25-1.84,3.04-3.23,7.85-3.91c4.81-0.67,11.06-0.55,17.61,0.34
		C35.19,103.96,35.18,103.96,35.18,103.97z M35.21,103.89c-13.65-1.86-25.18-0.24-25.71,3.6c-0.52,3.84,10.16,8.48,23.81,10.34
		s25.18,0.24,25.71-3.6c0.28-2.04-2.61-4.31-7.43-6.27c0.03,0,0.06,0,0.09,0c0.28,0.11,0.55,0.23,0.81,0.34
		c4.51,1.96,6.85,4.07,6.6,5.93c-0.25,1.87-3.08,3.27-7.94,3.95c-4.87,0.68-11.2,0.56-17.84-0.34c-6.63-0.9-12.77-2.48-17.28-4.44
		c-4.51-1.96-6.85-4.07-6.6-5.93c0.25-1.87,3.08-3.27,7.94-3.95c4.87-0.68,11.2-0.56,17.84,0.34c0.02,0,0.04,0.01,0.06,0.01
		c-0.01,0.01-0.01,0.01-0.02,0.02C35.24,103.89,35.23,103.89,35.21,103.89z M35.22,103.8c-13.82-1.88-25.5-0.24-26.03,3.65
		c-0.53,3.89,10.28,8.59,24.11,10.47c13.82,1.88,25.5,0.24,26.03-3.65c0.28-2.05-2.59-4.32-7.4-6.29c0.03,0,0.06,0,0.09,0
		c0.23,0.1,0.47,0.19,0.69,0.29c4.57,1.98,6.94,4.12,6.68,6.01c-0.26,1.89-3.11,3.31-8.04,4c-4.93,0.69-11.34,0.57-18.06-0.35
		c-6.71-0.91-12.93-2.51-17.49-4.49c-4.57-1.98-6.94-4.12-6.68-6.01c0.26-1.89,3.11-3.31,8.04-4c4.93-0.69,11.34-0.57,18.06,0.35
		c0.04,0.01,0.08,0.01,0.13,0.02c-0.01,0.01-0.01,0.01-0.02,0.02C35.3,103.81,35.26,103.8,35.22,103.8z M35.23,103.71
		c-13.99-1.9-25.81-0.25-26.35,3.69c-0.54,3.94,10.41,8.69,24.41,10.6c13.99,1.9,25.81,0.25,26.35-3.69
		c0.28-2.06-2.57-4.33-7.35-6.31c0.03,0,0.06,0,0.09,0.01c0.19,0.08,0.38,0.16,0.57,0.24c4.62,2.01,7.03,4.17,6.77,6.08
		c-0.26,1.91-3.15,3.35-8.14,4.05c-4.99,0.7-11.48,0.58-18.28-0.35c-6.8-0.92-13.09-2.54-17.71-4.55c-4.62-2.01-7.03-4.17-6.76-6.08
		c0.26-1.91,3.15-3.35,8.14-4.05c4.99-0.7,11.48-0.58,18.28,0.35c0.06,0.01,0.13,0.02,0.19,0.03c-0.01,0.01-0.01,0.01-0.02,0.02
		C35.35,103.73,35.29,103.72,35.23,103.71z M35.25,103.62c-14.17-1.93-26.13-0.25-26.68,3.74s10.54,8.8,24.71,10.73
		c14.17,1.93,26.13,0.25,26.68-3.74c0.28-2.06-2.54-4.34-7.29-6.33c0.03,0,0.06,0.01,0.09,0.01c0.14,0.06,0.28,0.12,0.42,0.18
		c4.68,2.03,7.11,4.22,6.85,6.16c-0.26,1.94-3.19,3.39-8.24,4.1c-5.05,0.71-11.63,0.58-18.51-0.35c-6.88-0.94-13.25-2.57-17.93-4.6
		s-7.11-4.22-6.85-6.16c0.26-1.94,3.19-3.39,8.24-4.1c5.05-0.71,11.63-0.58,18.51,0.35c0.09,0.01,0.17,0.02,0.26,0.04
		c-0.01,0.01-0.01,0.01-0.02,0.02C35.41,103.65,35.33,103.63,35.25,103.62z M35.26,103.53c-14.34-1.95-26.46-0.25-27.01,3.78
		c-0.55,4.04,10.67,8.91,25.02,10.86c14.34,1.95,26.46,0.25,27.01-3.78c0.28-2.06-2.51-4.34-7.21-6.34c0.03,0,0.04,0,0.04,0
		l0.01-0.01c0.1,0.04,0.2,0.08,0.3,0.13c4.74,2.06,7.2,4.27,6.93,6.23c-0.27,1.96-3.23,3.44-8.35,4.15
		c-5.12,0.72-11.77,0.59-18.74-0.36c-6.97-0.95-13.41-2.6-18.15-4.66c-4.74-2.06-7.2-4.27-6.93-6.23c0.27-1.96,3.23-3.44,8.35-4.15
		c5.12-0.72,11.77-0.59,18.74,0.36c0.11,0.01,0.22,0.03,0.32,0.05c-0.01,0.01-0.01,0.01-0.02,0.02
		C35.46,103.56,35.36,103.55,35.26,103.53z M35.27,103.44c-14.52-1.98-26.79-0.26-27.34,3.83c-0.56,4.09,10.81,9.02,25.33,11
		c14.52,1.98,26.79,0.26,27.34-3.83c0.29-2.1-2.59-4.43-7.42-6.47l0.02-0.02c0.15,0.06,0.31,0.13,0.46,0.19
		c4.8,2.08,7.29,4.32,7.02,6.31c-0.27,1.99-3.27,3.48-8.45,4.2c-5.18,0.73-11.92,0.6-18.97-0.36c-7.05-0.96-13.58-2.64-18.38-4.72
		c-4.8-2.08-7.29-4.32-7.02-6.31c0.27-1.99,3.27-3.48,8.45-4.2c5.18-0.73,11.92-0.6,18.97,0.36c0.13,0.02,0.26,0.04,0.39,0.06
		c-0.01,0.01-0.01,0.01-0.02,0.02C35.52,103.48,35.4,103.46,35.27,103.44z M35.28,103.35c-14.7-2-27.12-0.26-27.68,3.88
		c-0.56,4.14,10.94,9.13,25.64,11.13c14.7,2,27.12,0.26,27.69-3.88c0.29-2.15-2.68-4.54-7.67-6.61l0.02-0.02
		c0.21,0.09,0.41,0.17,0.61,0.26c4.86,2.11,7.38,4.38,7.11,6.39c-0.27,2.01-3.31,3.52-8.56,4.26c-5.24,0.73-12.06,0.6-19.21-0.37
		c-7.14-0.97-13.75-2.67-18.61-4.78c-4.86-2.11-7.38-4.38-7.11-6.39c0.27-2.01,3.31-3.52,8.55-4.26c5.24-0.73,12.06-0.6,19.21,0.37
		c0.15,0.02,0.3,0.04,0.46,0.07c-0.01,0.01-0.01,0.01-0.02,0.02C35.58,103.39,35.43,103.37,35.28,103.35z M35.3,103.26
		c-14.89-2.02-27.46-0.26-28.03,3.93c-0.57,4.19,11.08,9.25,25.96,11.27c14.89,2.03,27.46,0.26,28.03-3.93
		c0.3-2.2-2.77-4.64-7.92-6.76l0.02-0.02c0.26,0.11,0.52,0.22,0.77,0.32c4.92,2.13,7.47,4.43,7.19,6.47
		c-0.28,2.04-3.35,3.57-8.66,4.31c-5.31,0.74-12.21,0.61-19.44-0.37c-7.23-0.98-13.92-2.7-18.84-4.84c-4.92-2.13-7.47-4.43-7.2-6.47
		c0.28-2.04,3.35-3.57,8.66-4.31c5.31-0.74,12.21-0.61,19.44,0.37c0.17,0.02,0.35,0.05,0.52,0.07c-0.01,0.01-0.01,0.01-0.02,0.02
		C35.64,103.3,35.47,103.28,35.3,103.26z M35.31,103.16c-15.07-2.05-27.8-0.27-28.38,3.98c-0.58,4.24,11.21,9.36,26.28,11.41
		c15.07,2.05,27.8,0.27,28.38-3.98c0.31-2.25-2.87-4.75-8.17-6.9l0.02-0.03c0.32,0.13,0.63,0.26,0.94,0.39
		c4.98,2.16,7.56,4.49,7.28,6.55c-0.28,2.06-3.39,3.61-8.77,4.36c-5.37,0.75-12.37,0.62-19.68-0.38c-7.32-1-14.09-2.73-19.07-4.9
		c-4.98-2.16-7.56-4.49-7.28-6.55c0.28-2.06,3.39-3.61,8.77-4.36c5.37-0.75,12.37-0.62,19.68,0.38c0.2,0.03,0.39,0.06,0.59,0.08
		c-0.01,0.01-0.01,0.01-0.02,0.02C35.69,103.21,35.5,103.19,35.31,103.16z M35.32,103.07c-15.26-2.08-28.15-0.27-28.73,4.03
		c-0.58,4.3,11.35,9.48,26.61,11.55c15.26,2.08,28.15,0.27,28.73-4.03c0.31-2.3-2.97-4.86-8.43-7.05l0.02-0.03
		c0.38,0.15,0.74,0.3,1.1,0.46c5.04,2.19,7.66,4.54,7.37,6.63c-0.28,2.09-3.44,3.66-8.88,4.42c-5.44,0.76-12.52,0.63-19.93-0.38
		c-7.41-1.01-14.27-2.77-19.31-4.96c-5.04-2.19-7.66-4.54-7.37-6.63c0.28-2.09,3.44-3.66,8.88-4.42c5.44-0.76,12.52-0.63,19.93,0.38
		c0.22,0.03,0.44,0.06,0.66,0.09c-0.01,0.01-0.01,0.01-0.02,0.02C35.75,103.12,35.54,103.09,35.32,103.07z M35.34,102.97
		c-15.45-2.1-28.5-0.27-29.09,4.08c-0.59,4.35,11.49,9.6,26.94,11.7c15.45,2.1,28.5,0.27,29.09-4.08c0.32-2.35-3.07-4.96-8.68-7.2
		l0.02-0.02c0.43,0.17,0.86,0.35,1.27,0.53c5.1,2.22,7.75,4.6,7.47,6.71c-0.29,2.11-3.48,3.7-8.99,4.47
		c-5.51,0.77-12.67,0.63-20.18-0.39c-7.5-1.02-14.44-2.8-19.55-5.02c-5.1-2.22-7.75-4.6-7.47-6.71c0.29-2.11,3.48-3.7,8.99-4.47
		c5.51-0.77,12.67-0.63,20.18,0.39c0.24,0.03,0.48,0.07,0.72,0.1c0,0.01-0.01,0.01-0.01,0.02C35.81,103.03,35.57,103,35.34,102.97z
		 M35.35,102.87C19.71,100.74,6.5,102.59,5.9,107c-0.6,4.4,11.64,9.72,27.28,11.84c15.64,2.13,28.85,0.28,29.45-4.13
		c0.33-2.4-3.17-5.07-8.95-7.35l0.02-0.02c0.49,0.19,0.98,0.39,1.44,0.59c5.17,2.24,7.85,4.66,7.56,6.79
		c-0.29,2.14-3.52,3.75-9.1,4.53c-5.58,0.78-12.83,0.64-20.43-0.39s-14.62-2.84-19.79-5.08c-5.17-2.24-7.85-4.66-7.56-6.79
		c0.29-2.14,3.52-3.75,9.1-4.53c5.58-0.78,12.83-0.64,20.43,0.39c0.27,0.04,0.53,0.08,0.79,0.11c0,0.01-0.01,0.01-0.02,0.02
		C35.87,102.94,35.61,102.91,35.35,102.87z M35.36,102.77c-15.83-2.15-29.21-0.28-29.82,4.18c-0.61,4.46,11.78,9.84,27.62,11.99
		c15.83,2.15,29.21,0.28,29.82-4.18c0.33-2.45-3.27-5.18-9.21-7.5l0.02-0.02c0.55,0.22,1.1,0.44,1.61,0.66
		c5.23,2.27,7.95,4.71,7.65,6.88c-0.29,2.16-3.57,3.79-9.21,4.58c-5.65,0.79-12.99,0.65-20.68-0.4s-14.8-2.87-20.03-5.14
		c-5.23-2.27-7.95-4.71-7.65-6.88c0.29-2.16,3.57-3.79,9.21-4.58c5.65-0.79,12.99-0.65,20.68,0.4c0.29,0.04,0.57,0.08,0.86,0.12
		c0,0.01-0.01,0.01-0.02,0.02C35.93,102.85,35.65,102.81,35.36,102.77z M35.38,102.67c-16.03-2.18-29.57-0.28-30.19,4.23
		c-0.61,4.51,11.93,9.96,27.96,12.14c16.03,2.18,29.57,0.28,30.19-4.23c0.34-2.5-3.37-5.3-9.48-7.66l0.02-0.02
		c0.62,0.24,1.22,0.48,1.79,0.73c5.29,2.3,8.05,4.77,7.75,6.96c-0.3,2.19-3.61,3.84-9.33,4.64c-5.72,0.8-13.15,0.66-20.94-0.4
		c-7.79-1.06-14.99-2.91-20.28-5.21c-5.29-2.3-8.05-4.77-7.75-6.96c0.3-2.19,3.61-3.84,9.33-4.64c5.72-0.8,13.15-0.66,20.94,0.4
		c0.31,0.04,0.62,0.09,0.93,0.13c-0.01,0.01-0.01,0.01-0.01,0.02C35.99,102.76,35.68,102.71,35.38,102.67z M35.39,102.57
		c-16.23-2.21-29.94-0.29-30.56,4.28c-0.62,4.57,12.08,10.08,28.31,12.29c16.23,2.21,29.94,0.29,30.56-4.28
		c0.35-2.56-3.48-5.41-9.76-7.81l0.02-0.03c0.68,0.26,1.34,0.53,1.97,0.8c5.36,2.33,8.15,4.83,7.84,7.05
		c-0.3,2.22-3.65,3.89-9.44,4.7c-5.79,0.81-13.31,0.67-21.2-0.41c-7.88-1.07-15.17-2.94-20.53-5.27c-5.36-2.33-8.15-4.83-7.84-7.05
		c0.3-2.22,3.65-3.89,9.44-4.7c5.79-0.81,13.31-0.67,21.2,0.41c0.33,0.05,0.66,0.09,1,0.14c-0.01,0.01-0.01,0.01-0.02,0.02
		C36.05,102.66,35.72,102.61,35.39,102.57z M35.4,102.47c-16.43-2.24-30.31-0.29-30.94,4.34c-0.63,4.63,12.23,10.21,28.66,12.44
		s30.31,0.29,30.94-4.34c0.36-2.61-3.58-5.52-10.04-7.97l0.02-0.03c0.74,0.28,1.46,0.57,2.15,0.87c5.43,2.36,8.25,4.89,7.94,7.14
		c-0.31,2.25-3.7,3.94-9.56,4.76c-5.86,0.82-13.48,0.68-21.46-0.41c-7.98-1.09-15.36-2.98-20.79-5.34
		c-5.43-2.36-8.25-4.89-7.94-7.14c0.31-2.25,3.7-3.94,9.56-4.76c5.86-0.82,13.48-0.68,21.46,0.41c0.36,0.05,0.71,0.1,1.06,0.15
		c-0.01,0.01-0.01,0.01-0.02,0.02C36.11,102.56,35.76,102.51,35.4,102.47z M35.42,102.36c-16.64-2.26-30.69-0.29-31.33,4.39
		c-0.64,4.68,12.38,10.34,29.02,12.6c16.64,2.26,30.69,0.29,31.33-4.39c0.36-2.66-3.69-5.64-10.32-8.13l0.02-0.02
		c0.81,0.3,1.59,0.62,2.33,0.94c5.49,2.39,8.35,4.95,8.04,7.23c-0.31,2.27-3.75,3.98-9.68,4.82c-5.93,0.83-13.65,0.68-21.73-0.42
		c-8.08-1.1-15.55-3.02-21.05-5.4c-5.49-2.39-8.35-4.95-8.04-7.23c0.31-2.27,3.75-3.98,9.68-4.82c5.93-0.83,13.65-0.68,21.73,0.42
		c0.38,0.05,0.76,0.11,1.13,0.16c-0.01,0.01-0.01,0.01-0.02,0.02C36.17,102.47,35.79,102.41,35.42,102.36z M35.43,102.26
		c-16.84-2.29-31.07-0.3-31.72,4.44c-0.65,4.74,12.53,10.46,29.38,12.76c16.84,2.29,31.07,0.3,31.72-4.44
		c0.37-2.72-3.8-5.76-10.6-8.29l0.02-0.02c0.88,0.33,1.72,0.66,2.52,1.01c5.56,2.41,8.45,5.01,8.14,7.32
		c-0.31,2.3-3.79,4.03-9.8,4.88c-6,0.84-13.82,0.69-22-0.42c-8.18-1.11-15.75-3.06-21.31-5.47c-5.56-2.41-8.45-5.01-8.14-7.32
		s3.79-4.03,9.8-4.88c6-0.84,13.82-0.69,22,0.42c0.4,0.05,0.8,0.11,1.2,0.17c-0.01,0.01-0.01,0.01-0.02,0.02
		C36.23,102.37,35.83,102.31,35.43,102.26z M69.19,49.17c0.16,0,0.32,0.01,0.48,0c0,0-0.19,0.04-0.49,0.08
		C69.18,49.23,69.19,49.2,69.19,49.17z M79.75,72.32c-1.4-1.88-6.49-9.06-7.55-15.43c0,0-0.98,0.02-1.95,0.49
		c-0.49-1.26-1.23-3.74-1.14-6.95c0.41,0.06,0.82,0.08,1.18,0.03c0,0-0.52,0.93,0.05,3c0,0-0.31-1.76,0.52-3.21
		c0,0-0.09,1.77,0.21,2.57c0,0,0.97-0.12,1.8,1.15c0.83,1.27,1.11,3.1,1.69,4.81c0.58,1.71,2.13,1.24,2.91,5.66s4.03,6.71,4.03,6.71
		L79.75,72.32z M104.53,56.05c0,0-0.7-5.8-0.97-7.06c-0.27-1.26-1.45-0.48-1.45-0.48s-1.47-11.08-9.95-13.3
		c-8.48-2.22-15.1,0.57-19.08,5.53c-0.85,1.06-1.66,1.97-2.44,2.74c0.56-1.35,1.31-2.74,2.29-4.16c6.77-9.86,27.65-10.81,33.27,6.23
		c-1.57,0.09-2.76,0.82-2.76,0.82c1.17,2.28,2.08,5.43,2.68,7.85C105.5,54.65,104.95,55.23,104.53,56.05z M152.57,119.35
		c0.08,0.46,0.46,1.94,2.18,2l0.02,1.56c-0.64-0.01-1.28-0.02-1.91-0.03C152.85,121.94,152.77,120.79,152.57,119.35z M154.79,124.07
		l0,0.03c-0.66-0.01-1.31-0.02-1.96-0.02c0-0.01,0-0.02,0-0.03C153.48,124.05,154.14,124.06,154.79,124.07z M154.79,124.22l0,0.03
		c-0.66-0.01-1.32-0.02-1.97-0.02c0-0.01,0-0.02,0-0.03C153.48,124.2,154.13,124.21,154.79,124.22z M154.8,124.36l0,0.03
		c-0.67-0.01-1.33-0.02-1.99-0.02c0-0.01,0-0.02,0-0.03C153.47,124.34,154.13,124.35,154.8,124.36z M136.67,126.04
		c0,0.01,0,0.03,0.01,0.04c-8.15,1.5-13.46,4.18-13.64,7.48c-0.31,5.79,15.3,11.34,34.78,12.37c19.49,1.03,35.59-2.84,35.89-8.63
		c0.22-4.15-7.75-8.18-19.47-10.51c0-0.01-0.01-0.03-0.01-0.04c3.52,0.7,6.76,1.56,9.58,2.56c6.59,2.34,10.13,5.18,9.98,7.99
		c-0.15,2.81-3.97,5.26-10.77,6.89c-6.8,1.63-15.75,2.26-25.21,1.76c-9.46-0.5-18.3-2.06-24.89-4.41
		c-6.59-2.34-10.13-5.18-9.98-7.99c0.15-2.81,3.97-5.26,10.77-6.89C134.67,126.44,135.65,126.23,136.67,126.04z M137.17,126.92
		c0.01,0.01,0.02,0.02,0.03,0.03c-6.98,1.42-11.48,3.82-11.64,6.75c-0.28,5.38,14.2,10.53,32.3,11.48
		c18.09,0.96,33.04-2.64,33.33-8.01c0.19-3.69-6.56-7.27-16.66-9.46c0-0.01-0.01-0.03-0.01-0.04c2.72,0.59,5.25,1.29,7.48,2.08
		c6.12,2.17,9.41,4.81,9.27,7.42c-0.14,2.61-3.69,4.88-10,6.4c-6.31,1.52-14.63,2.1-23.42,1.63c-8.79-0.46-17-1.92-23.11-4.09
		c-6.12-2.17-9.41-4.81-9.27-7.42c0.14-2.61,3.69-4.88,10-6.4C136.03,127.16,136.59,127.04,137.17,126.92z M137.65,127.29
		c0.02,0.01,0.04,0.02,0.06,0.03c-6.57,1.38-10.79,3.66-10.94,6.44c-0.27,5.18,13.69,10.14,31.12,11.06
		c17.43,0.92,31.84-2.54,32.11-7.72c0.18-3.46-5.99-6.83-15.31-8.95c0-0.01-0.01-0.03-0.01-0.04c2.34,0.53,4.52,1.15,6.48,1.84
		c5.89,2.1,9.07,4.63,8.93,7.15c-0.13,2.52-3.56,4.71-9.64,6.17c-6.08,1.46-14.1,2.02-22.57,1.57c-8.47-0.45-16.38-1.85-22.27-3.94
		c-5.89-2.1-9.07-4.63-8.93-7.15c0.13-2.52,3.56-4.71,9.64-6.17C136.75,127.48,137.19,127.38,137.65,127.29z M138.41,127.43
		c0.2-0.01,0.42-0.06,0.65-0.13c2.33-0.44,4.89-0.77,7.6-0.97l0,0.03c-11.05,0.82-18.93,3.66-19.13,7.43
		c-0.27,5.05,13.35,9.89,30.36,10.79c17.01,0.9,31.06-2.48,31.33-7.53c0.18-3.31-5.63-6.54-14.44-8.62c0-0.01-0.01-0.03-0.01-0.04
		c2.1,0.49,4.06,1.06,5.82,1.69c5.75,2.04,8.85,4.52,8.72,6.98c-0.13,2.45-3.47,4.59-9.4,6.02c-5.93,1.43-13.75,1.97-22.02,1.54
		c-8.26-0.44-15.98-1.8-21.73-3.85c-5.75-2.04-8.85-4.52-8.72-6.98c0.13-2.45,3.47-4.59,9.4-6.02
		C137.36,127.66,137.88,127.54,138.41,127.43z M146.64,127.51c0.01,0.01,0.01,0.02,0.02,0.03c-9.04,0.85-15.37,3.28-15.54,6.45
		c-0.24,4.47,11.8,8.74,26.83,9.54c15.03,0.79,27.45-2.19,27.69-6.66c0.14-2.61-3.93-5.17-10.35-6.99c0-0.01-0.01-0.03-0.01-0.04
		c0.96,0.27,1.88,0.56,2.75,0.87c5.08,1.81,7.82,4,7.71,6.17c-0.11,2.17-3.07,4.06-8.31,5.32c-5.25,1.26-12.16,1.74-19.46,1.36
		s-14.13-1.59-19.21-3.4c-5.08-1.81-7.82-4-7.71-6.17c0.11-2.17,3.07-4.06,8.31-5.32C141.52,128.14,143.99,127.75,146.64,127.51z
		 M154.96,127.96c0.01,0.01,0.02,0.02,0.04,0.03c-1.01-0.01-1.99,0-2.96,0.03c0-0.01,0-0.02,0-0.03
		C153,127.96,153.97,127.95,154.96,127.96z M155.17,128.14c0.01,0.01,0.02,0.02,0.03,0.03c-1.07-0.01-2.13,0-3.15,0.04
		c0-0.01,0-0.02,0-0.03C153.06,128.14,154.11,128.13,155.17,128.14z M181.11,136.63c-0.2,3.72-10.55,6.21-23.09,5.55
		c-12.53-0.66-22.57-4.23-22.37-7.95c0.13-2.51,4.87-4.46,11.78-5.26c0,0.01,0.01,0.02,0.01,0.03c-6.87,0.8-11.58,2.74-11.71,5.24
		c-0.2,3.71,9.8,7.26,22.29,7.92c12.49,0.66,22.8-1.82,23-5.53c0.09-1.72-2.01-3.4-5.52-4.78c0.01-0.01,0.02-0.02,0.02-0.03
		C179.08,133.2,181.2,134.9,181.11,136.63z M180.56,136.6c-0.19,3.63-10.3,6.06-22.53,5.42c-12.23-0.65-22.02-4.13-21.83-7.76
		c0.13-2.42,4.67-4.31,11.32-5.11c0,0.01,0.01,0.02,0.01,0.03c-6.6,0.79-11.12,2.67-11.24,5.09c-0.19,3.62,9.56,7.09,21.74,7.73
		c12.18,0.64,22.25-1.78,22.44-5.4c0.09-1.64-1.86-3.24-5.14-4.57c0.01-0.01,0.02-0.02,0.03-0.03
		C178.68,133.34,180.65,134.95,180.56,136.6z M164.31,131.56c0.13,2.2-0.18,2.77,1.6,3.44c1.78,0.67,2.69,0.05,2.71-0.67
		c0.01-0.3-0.01-1.31-0.07-2.43c4.17,1.14,6.83,2.76,6.74,4.43c-0.15,2.78-7.84,4.63-17.19,4.13c-9.35-0.49-16.8-3.14-16.66-5.92
		c0.09-1.62,2.76-2.93,6.83-3.64c0.18,0.47,0.32,0.94,0.41,1.36c0.39,1.94,0.98,3.28,3.33,2.33c1.98-0.81,1.32-2.12,0.59-4.17
		c1.11-0.07,2.28-0.1,3.49-0.09c0.07,0.36,0.13,0.77,0.16,1.23c0.26,3.21,0.67,5.79,2.35,5.82c1.68,0.03,3.46-0.1,3.52-1.96
		c0.04-1.35-0.81-2.65-1.31-4.85c1.19,0.11,2.34,0.25,3.44,0.43C164.29,131.17,164.3,131.35,164.31,131.56z M155.81,129.25
		c-1.22-0.01-2.41,0.01-3.56,0.06c0-0.01-0.01-0.02-0.01-0.03c1.15-0.05,2.34-0.07,3.56-0.06
		C155.81,129.23,155.81,129.24,155.81,129.25z M147.78,129.69c-5.84,0.77-9.79,2.48-9.91,4.65c-0.18,3.36,8.88,6.58,20.19,7.18
		c11.31,0.6,20.65-1.65,20.83-5.01c0.08-1.47-1.6-2.9-4.46-4.11c0.02,0,0.04-0.01,0.06-0.01c2.87,1.21,4.56,2.66,4.48,4.13
		c-0.18,3.37-9.56,5.63-20.92,5.03c-11.36-0.6-20.45-3.83-20.27-7.21c0.12-2.19,4.1-3.9,9.98-4.68
		C147.77,129.67,147.78,129.68,147.78,129.69z M171.61,131.4c-0.98-0.29-2.03-0.56-3.15-0.81c0-0.01,0-0.02,0-0.03
		c1.11,0.24,2.16,0.51,3.13,0.8C171.6,131.38,171.6,131.39,171.61,131.4z M164.1,129.84c-1.12-0.15-2.28-0.28-3.47-0.37
		c0-0.01,0-0.02,0-0.03c1.19,0.1,2.35,0.22,3.46,0.37C164.1,129.82,164.1,129.83,164.1,129.84z M155.78,129.17
		c-1.22-0.01-2.41,0.01-3.56,0.06c0-0.01-0.01-0.02-0.01-0.03c1.15-0.05,2.33-0.07,3.55-0.06
		C155.78,129.15,155.78,129.16,155.78,129.17z M147.74,129.61c-5.96,0.78-10.01,2.51-10.13,4.73c-0.18,3.4,8.99,6.66,20.44,7.27
		c11.45,0.6,20.91-1.67,21.09-5.07c0.08-1.49-1.63-2.95-4.53-4.17c0.02-0.01,0.04-0.01,0.06-0.02c2.92,1.23,4.64,2.7,4.56,4.19
		c-0.18,3.42-9.68,5.7-21.18,5.09c-11.5-0.61-20.71-3.88-20.53-7.3c0.12-2.23,4.19-3.97,10.2-4.75
		C147.73,129.59,147.74,129.6,147.74,129.61z M171.56,131.29c-0.97-0.28-2.01-0.54-3.11-0.78c0-0.01,0-0.02,0-0.03
		c1.09,0.23,2.13,0.49,3.09,0.77C171.55,131.26,171.55,131.28,171.56,131.29z M164.08,129.76c-1.12-0.15-2.27-0.27-3.46-0.37
		c0-0.01,0-0.02,0-0.03c1.18,0.09,2.34,0.22,3.45,0.37C164.08,129.74,164.08,129.75,164.08,129.76z M155.75,129.09
		c-1.22-0.01-2.4,0.01-3.55,0.06c0-0.01,0-0.02-0.01-0.03c1.14-0.05,2.33-0.07,3.54-0.06C155.74,129.07,155.75,129.08,155.75,129.09
		z M147.7,129.52c-6.09,0.78-10.23,2.54-10.34,4.8c-0.18,3.44,9.1,6.74,20.69,7.36c11.59,0.61,21.17-1.69,21.35-5.13
		c0.08-1.51-1.66-2.99-4.62-4.23c0.02-0.01,0.04-0.01,0.05-0.02c2.98,1.25,4.73,2.74,4.65,4.26c-0.18,3.46-9.8,5.77-21.44,5.16
		c-11.64-0.61-20.96-3.93-20.78-7.39c0.12-2.26,4.29-4.04,10.42-4.82C147.69,129.5,147.7,129.51,147.7,129.52z M171.51,131.18
		c-0.96-0.27-1.98-0.53-3.07-0.76c0-0.01,0-0.02,0-0.03c1.08,0.23,2.1,0.48,3.05,0.75C171.5,131.15,171.5,131.16,171.51,131.18z
		 M164.06,129.67c-1.11-0.15-2.27-0.27-3.45-0.36c0-0.01,0-0.02,0-0.03c1.18,0.09,2.33,0.22,3.44,0.36
		C164.05,129.66,164.06,129.67,164.06,129.67z M155.72,129.01c-1.21-0.01-2.39,0.01-3.54,0.05c0-0.01,0-0.02-0.01-0.03
		c1.14-0.05,2.32-0.07,3.53-0.05C155.71,128.99,155.72,129,155.72,129.01z M147.66,129.44c-6.22,0.78-10.44,2.58-10.57,4.87
		c-0.18,3.49,9.21,6.83,20.95,7.45c11.74,0.62,21.44-1.71,21.62-5.2c0.08-1.54-1.7-3.05-4.73-4.31c0.02-0.01,0.03-0.01,0.05-0.02
		c3.05,1.27,4.85,2.79,4.77,4.33c-0.18,3.5-9.92,5.84-21.71,5.22c-11.79-0.62-21.22-3.98-21.04-7.48c0.12-2.3,4.38-4.11,10.64-4.89
		C147.65,129.42,147.66,129.43,147.66,129.44z M171.46,131.06c-0.95-0.27-1.96-0.51-3.03-0.74c0-0.01,0-0.02,0-0.03
		c1.06,0.22,2.07,0.46,3.02,0.73C171.45,131.04,171.46,131.05,171.46,131.06z M164.04,129.59c-1.11-0.14-2.26-0.26-3.44-0.36
		c0-0.01,0-0.02,0-0.03c1.17,0.09,2.32,0.21,3.43,0.36C164.03,129.57,164.04,129.58,164.04,129.59z M155.68,128.93
		c-1.21-0.01-2.38,0.01-3.52,0.05c0-0.01,0-0.02-0.01-0.03c1.14-0.05,2.31-0.07,3.52-0.05
		C155.67,128.91,155.68,128.92,155.68,128.93z M147.62,129.35c-6.34,0.79-10.67,2.61-10.79,4.94c-0.19,3.53,9.33,6.91,21.21,7.54
		c11.88,0.63,21.7-1.73,21.89-5.26c0.08-1.57-1.75-3.11-4.85-4.39c0.01-0.01,0.03-0.02,0.04-0.02c3.13,1.29,4.98,2.84,4.89,4.41
		c-0.19,3.54-10.05,5.92-21.98,5.29c-11.93-0.63-21.49-4.03-21.3-7.57c0.12-2.34,4.48-4.17,10.86-4.96
		C147.61,129.33,147.61,129.34,147.62,129.35z M171.42,130.95c-0.94-0.26-1.94-0.5-3-0.72c0-0.01,0-0.02,0-0.03
		c1.05,0.21,2.05,0.45,2.99,0.71C171.41,130.93,171.41,130.94,171.42,130.95z M164.01,129.51c-1.11-0.14-2.25-0.26-3.42-0.35
		c0-0.01,0-0.02,0-0.03c1.17,0.09,2.31,0.21,3.42,0.35C164.01,129.49,164.01,129.5,164.01,129.51z M155.65,128.85
		c-1.2-0.01-2.37,0-3.5,0.05c0-0.01,0-0.02-0.01-0.03c1.13-0.05,2.3-0.06,3.5-0.05C155.64,128.83,155.64,128.84,155.65,128.85z
		 M147.58,129.27c-6.47,0.79-10.89,2.64-11.02,5.01c-0.19,3.57,9.45,7,21.48,7.63c12.03,0.64,21.97-1.76,22.16-5.33
		c0.08-1.6-1.8-3.17-4.99-4.47c0.01-0.01,0.03-0.02,0.04-0.03c3.22,1.31,5.12,2.89,5.04,4.5c-0.19,3.59-10.17,5.99-22.25,5.35
		c-12.08-0.64-21.75-4.08-21.56-7.67c0.13-2.38,4.58-4.24,11.09-5.04C147.57,129.25,147.57,129.26,147.58,129.27z M171.38,130.84
		c-0.93-0.25-1.92-0.48-2.96-0.7c0-0.01,0-0.02,0-0.03c1.04,0.21,2.02,0.44,2.95,0.69C171.37,130.81,171.37,130.83,171.38,130.84z
		 M163.99,129.42c-1.1-0.14-2.24-0.26-3.41-0.35c0-0.01,0-0.02,0-0.03c1.16,0.09,2.3,0.21,3.4,0.35
		C163.98,129.4,163.98,129.41,163.99,129.42z M155.6,128.77c-1.19-0.01-2.36,0-3.48,0.05c0-0.01,0-0.02-0.01-0.03
		c1.12-0.04,2.28-0.06,3.47-0.05C155.6,128.75,155.6,128.76,155.6,128.77z M171.33,130.73c-0.93-0.24-1.91-0.47-2.93-0.68
		c0-0.01,0-0.02,0-0.03c1.02,0.2,2,0.43,2.92,0.67C171.32,130.7,171.33,130.72,171.33,130.73z M163.96,129.33
		c-1.1-0.14-2.23-0.25-3.39-0.34c0-0.01,0-0.02,0-0.03c1.16,0.09,2.29,0.2,3.38,0.34C163.95,129.31,163.96,129.32,163.96,129.33z
		 M155.56,128.69c-1.18-0.01-2.34,0-3.45,0.05c0-0.01,0-0.02-0.01-0.03c1.12-0.04,2.27-0.06,3.45-0.05
		C155.55,128.67,155.56,128.68,155.56,128.69z M147.49,129.09c-6.73,0.8-11.35,2.71-11.48,5.16c-0.19,3.66,9.68,7.17,22.01,7.83
		c12.33,0.65,22.52-1.8,22.72-5.46c0.09-1.68-1.93-3.32-5.32-4.67c0.01-0.01,0.02-0.02,0.03-0.03c3.43,1.36,5.47,3.02,5.39,4.71
		c-0.19,3.68-10.42,6.14-22.81,5.48c-12.38-0.65-22.3-4.18-22.1-7.86c0.13-2.47,4.77-4.38,11.55-5.18
		C147.48,129.07,147.49,129.08,147.49,129.09z M171.29,130.62c-0.92-0.24-1.89-0.46-2.9-0.66c0-0.01,0-0.02,0-0.03
		c1.01,0.2,1.98,0.42,2.89,0.65C171.28,130.59,171.29,130.6,171.29,130.62z M163.93,129.24c-1.09-0.14-2.22-0.25-3.37-0.34
		c0-0.01,0-0.02,0-0.03c1.15,0.09,2.27,0.2,3.36,0.34C163.92,129.23,163.93,129.23,163.93,129.24z M155.51,128.6
		c-1.17-0.01-2.31,0-3.42,0.05c0-0.01,0-0.02,0-0.03c1.11-0.04,2.24-0.06,3.41-0.05C155.5,128.58,155.51,128.59,155.51,128.6z
		 M171.25,130.5c-0.91-0.23-1.87-0.45-2.87-0.64c0-0.01,0-0.02,0-0.03c1,0.19,1.95,0.41,2.86,0.64
		C171.24,130.48,171.25,130.49,171.25,130.5z M163.9,129.15c-1.09-0.13-2.2-0.25-3.34-0.33c0-0.01,0-0.02,0-0.03
		c1.14,0.09,2.25,0.2,3.34,0.33C163.89,129.14,163.9,129.15,163.9,129.15z M155.46,128.52c-1.16-0.01-2.29,0-3.39,0.04
		c0-0.01,0-0.02,0-0.03c1.09-0.04,2.22-0.06,3.37-0.04C155.45,128.5,155.46,128.51,155.46,128.52z M147.4,128.91
		c-7,0.81-11.81,2.77-11.95,5.31c-0.2,3.76,9.92,7.35,22.57,8.02c12.64,0.67,23.09-1.84,23.29-5.6c0.09-1.76-2.09-3.49-5.75-4.9
		c0-0.01,0.01-0.02,0.01-0.04c3.7,1.42,5.92,3.16,5.82,4.94c-0.2,3.77-10.68,6.29-23.37,5.62c-12.69-0.67-22.85-4.28-22.65-8.05
		c0.13-2.55,4.98-4.53,12.02-5.33C147.39,128.89,147.4,128.9,147.4,128.91z M171.21,130.39c-0.9-0.23-1.85-0.44-2.84-0.63
		c0-0.01,0-0.02,0-0.03c0.99,0.19,1.93,0.4,2.84,0.62C171.2,130.37,171.21,130.38,171.21,130.39z M163.87,129.06
		c-1.08-0.13-2.19-0.24-3.32-0.33c0-0.01,0-0.02,0-0.03c1.13,0.09,2.23,0.2,3.31,0.33C163.86,129.05,163.86,129.05,163.87,129.06z
		 M155.4,128.43c-1.14-0.01-2.26,0-3.34,0.04c0-0.01,0-0.02,0-0.03c1.08-0.04,2.19-0.05,3.33-0.04
		C155.39,128.41,155.4,128.42,155.4,128.43z M147.35,128.82c-7.14,0.81-12.05,2.81-12.18,5.39c-0.2,3.8,10.05,7.45,22.85,8.12
		c12.8,0.68,23.37-1.87,23.57-5.67c0.1-1.81-2.19-3.59-6-5.03c0-0.01,0.01-0.02,0.01-0.04c3.85,1.45,6.17,3.24,6.07,5.07
		c-0.2,3.82-10.82,6.37-23.66,5.69c-12.85-0.68-23.13-4.34-22.93-8.15c0.14-2.59,5.08-4.6,12.26-5.41
		C147.34,128.8,147.35,128.81,147.35,128.82z M171.17,130.28c-0.9-0.22-1.84-0.42-2.82-0.61c0-0.01,0-0.02,0-0.03
		c0.98,0.19,1.91,0.39,2.81,0.61C171.16,130.26,171.17,130.27,171.17,130.28z M163.83,128.97c-1.07-0.13-2.17-0.24-3.29-0.32
		c0-0.01,0-0.02,0-0.03c1.12,0.08,2.21,0.19,3.28,0.32C163.82,128.95,163.83,128.96,163.83,128.97z M155.34,128.34
		c-1.12-0.01-2.22,0-3.29,0.04c0-0.01,0-0.02,0-0.03c1.06-0.04,2.15-0.05,3.27-0.04C155.33,128.33,155.34,128.33,155.34,128.34z
		 M147.31,128.73c-7.28,0.81-12.29,2.84-12.43,5.46c-0.2,3.85,10.17,7.54,23.13,8.22c12.96,0.68,23.66-1.89,23.87-5.74
		c0.1-1.87-2.29-3.7-6.26-5.16c0-0.01,0-0.03,0-0.04c4.19,1.54,6.44,3.38,6.35,5.21c-0.1,1.87-2.65,3.5-7.17,4.59
		c-4.53,1.09-10.49,1.5-16.79,1.17c-13.01-0.69-23.42-4.39-23.22-8.25c0.14-2.63,5.18-4.67,12.5-5.49
		C147.3,128.71,147.3,128.72,147.31,128.73z M171.13,130.17c-0.89-0.21-1.82-0.41-2.79-0.6c0-0.01,0-0.02,0-0.03
		c0.96,0.18,1.89,0.38,2.78,0.59C171.12,130.14,171.13,130.15,171.13,130.17z M163.79,128.88c-1.06-0.13-2.15-0.23-3.26-0.32
		c0-0.01,0-0.02,0-0.02c1.1,0.08,2.19,0.19,3.25,0.31C163.79,128.86,163.79,128.87,163.79,128.88z M155.27,128.25
		c-1.1-0.01-2.18,0-3.23,0.04c0-0.01,0-0.02,0-0.03c1.05-0.03,2.12-0.05,3.21-0.04C155.26,128.24,155.26,128.25,155.27,128.25z
		 M147.26,128.63c-7.42,0.82-12.53,2.88-12.67,5.54c-0.21,3.9,10.3,7.63,23.42,8.32c13.12,0.69,23.96-1.91,24.17-5.81
		c0.1-1.92-2.4-3.8-6.54-5.3c0-0.01,0-0.03,0-0.04c4.38,1.57,6.73,3.47,6.63,5.35c-0.1,1.89-2.68,3.55-7.26,4.65
		c-4.58,1.1-10.62,1.52-17,1.19c-6.38-0.34-12.34-1.39-16.78-2.97c-4.44-1.58-6.83-3.49-6.73-5.39c0.1-1.89,2.68-3.55,7.26-4.65
		c1.65-0.4,3.5-0.71,5.48-0.92C147.25,128.61,147.25,128.62,147.26,128.63z M171.09,130.05c-0.88-0.21-1.81-0.4-2.77-0.58
		c0-0.01,0-0.02-0.01-0.03c0.95,0.18,1.87,0.37,2.76,0.58C171.08,130.03,171.09,130.04,171.09,130.05z M163.75,128.79
		c-1.05-0.12-2.13-0.23-3.23-0.31c0-0.01,0-0.02,0-0.02c1.09,0.08,2.16,0.18,3.22,0.31C163.74,128.77,163.75,128.78,163.75,128.79z
		 M147.21,128.54c-7.56,0.82-12.77,2.91-12.92,5.62c-0.21,3.95,10.43,7.73,23.71,8.43c13.28,0.7,24.26-1.94,24.47-5.88
		c0.1-1.98-2.52-3.92-6.84-5.45c0-0.01,0-0.03,0-0.04c0.04,0.01,0.08,0.03,0.12,0.04c4.49,1.6,6.91,3.53,6.81,5.45
		c-0.1,1.92-2.71,3.59-7.35,4.7c-4.64,1.12-10.75,1.54-17.21,1.2c-6.46-0.34-12.49-1.41-16.98-3.01c-4.49-1.6-6.91-3.53-6.81-5.45
		c0.1-1.92,2.71-3.59,7.35-4.7c1.7-0.41,3.6-0.72,5.64-0.94C147.2,128.52,147.2,128.53,147.21,128.54z M171.05,129.94
		c-0.88-0.2-1.79-0.39-2.74-0.57c0-0.01,0-0.02-0.01-0.03c0.94,0.17,1.85,0.36,2.73,0.56C171.04,129.91,171.05,129.93,171.05,129.94
		z M163.71,128.69c-1.04-0.12-2.1-0.22-3.19-0.3c0-0.01,0-0.02,0-0.02c1.08,0.08,2.14,0.18,3.18,0.3
		C163.7,128.67,163.71,128.68,163.71,128.69z M155.1,128.07c-1.04-0.01-2.07,0-3.07,0.04c0-0.01,0-0.02,0-0.03
		c0.99-0.03,2.01-0.04,3.04-0.04C155.08,128.06,155.09,128.06,155.1,128.07z M147.16,128.44c-7.7,0.82-13.02,2.95-13.17,5.7
		c-0.21,3.99,10.56,7.82,24,8.53c13.45,0.71,24.56-1.96,24.77-5.96c0.11-2.04-2.64-4.03-7.15-5.59c0-0.01,0-0.03-0.01-0.04
		c0.11,0.04,0.23,0.08,0.35,0.12c4.55,1.62,7,3.58,6.9,5.52c-0.1,1.94-2.75,3.63-7.44,4.76c-4.7,1.13-10.88,1.56-17.42,1.22
		c-6.54-0.35-12.64-1.43-17.19-3.04c-4.55-1.62-7-3.58-6.9-5.52c0.1-1.94,2.74-3.63,7.44-4.76c1.75-0.42,3.7-0.74,5.8-0.97
		C147.15,128.42,147.15,128.43,147.16,128.44z M171.01,129.83c-0.87-0.2-1.78-0.39-2.72-0.56c0-0.01,0-0.02-0.01-0.03
		c0.93,0.17,1.84,0.35,2.71,0.55C171,129.8,171.01,129.81,171.01,129.83z M163.67,128.59c-1.03-0.12-2.08-0.22-3.15-0.3
		c0-0.01,0-0.02,0-0.02c1.06,0.08,2.11,0.17,3.14,0.29C163.66,128.57,163.66,128.58,163.67,128.59z M147.11,128.35
		c-7.84,0.83-13.27,2.98-13.42,5.78c-0.21,4.04,10.69,7.92,24.3,8.64c13.61,0.72,24.87-1.99,25.08-6.03
		c0.11-2.1-2.77-4.15-7.47-5.74c0-0.01,0-0.03-0.01-0.04c0.2,0.07,0.39,0.13,0.58,0.2c4.61,1.64,7.09,3.62,6.98,5.59
		c-0.1,1.97-2.78,3.68-7.53,4.82c-4.75,1.14-11.02,1.58-17.64,1.23c-6.62-0.35-12.8-1.44-17.41-3.08s-7.09-3.62-6.98-5.59
		c0.1-1.97,2.78-3.68,7.53-4.82c1.79-0.43,3.8-0.76,5.96-0.99C147.1,128.32,147.1,128.34,147.11,128.35z M170.97,129.71
		c-0.87-0.2-1.77-0.38-2.7-0.54c0-0.01,0-0.02-0.01-0.03c0.92,0.16,1.82,0.35,2.69,0.54C170.96,129.69,170.97,129.7,170.97,129.71z
		 M163.62,128.5c-1.01-0.11-2.05-0.21-3.11-0.29c0-0.01,0-0.02,0-0.02c1.05,0.08,2.08,0.17,3.1,0.28
		C163.61,128.48,163.62,128.49,163.62,128.5z M154.85,127.89c-0.95-0.01-1.89,0.01-2.81,0.03c0-0.01,0-0.02,0-0.03
		c0.92-0.03,1.86-0.04,2.81-0.03L154.85,127.89z M147.06,128.25c-7.99,0.83-13.52,3.02-13.68,5.86c-0.22,4.09,10.82,8.02,24.61,8.75
		c13.78,0.73,25.17-2.01,25.39-6.11c0.11-2.16-2.9-4.27-7.8-5.89c0-0.01-0.01-0.03-0.01-0.04c0.28,0.09,0.56,0.19,0.83,0.28
		c4.66,1.66,7.17,3.67,7.07,5.66c-0.11,1.99-2.81,3.72-7.63,4.88c-4.81,1.16-11.15,1.6-17.85,1.25c-6.7-0.35-12.96-1.46-17.62-3.12
		c-4.66-1.66-7.17-3.67-7.07-5.66c0.11-1.99,2.81-3.72,7.63-4.88c1.84-0.44,3.9-0.78,6.12-1.01
		C147.04,128.23,147.05,128.24,147.06,128.25z M170.93,129.6c-0.86-0.19-1.75-0.37-2.68-0.53c0-0.01,0-0.02-0.01-0.03
		c0.92,0.16,1.81,0.34,2.67,0.53C170.92,129.57,170.93,129.59,170.93,129.6z M163.57,128.4c-1-0.11-2.03-0.21-3.07-0.28
		c0-0.01,0-0.02,0-0.03c1.03,0.08,2.05,0.17,3.05,0.28C163.56,128.38,163.57,128.39,163.57,128.4z M154.85,127.8
		c-0.95-0.01-1.89,0-2.8,0.03c0-0.01,0-0.02,0-0.03c0.92-0.03,1.85-0.04,2.8-0.03L154.85,127.8z M147,128.15
		c-8.13,0.83-13.78,3.05-13.93,5.94c-0.22,4.15,10.96,8.12,24.91,8.86c13.96,0.74,25.49-2.04,25.71-6.18
		c0.12-2.22-3.04-4.4-8.15-6.05c0-0.01-0.01-0.03-0.01-0.04c0.37,0.12,0.73,0.24,1.09,0.37c4.72,1.68,7.26,3.71,7.16,5.73
		c-0.11,2.02-2.85,3.77-7.72,4.94c-4.87,1.17-11.29,1.62-18.08,1.26c-6.78-0.36-13.12-1.48-17.84-3.16
		c-4.72-1.68-7.26-3.71-7.16-5.73c0.11-2.02,2.85-3.77,7.72-4.94c1.89-0.45,4-0.8,6.28-1.03C146.99,128.13,147,128.14,147,128.15z
		 M170.89,129.48c-0.86-0.19-1.74-0.36-2.66-0.52c0-0.01,0-0.02-0.01-0.03c0.91,0.16,1.79,0.33,2.65,0.52
		C170.88,129.46,170.89,129.47,170.89,129.48z M163.52,128.3c-0.99-0.11-2-0.2-3.02-0.28c0-0.01,0-0.02,0-0.03
		c1.02,0.07,2.02,0.16,3.01,0.27C163.51,128.28,163.52,128.29,163.52,128.3z M154.85,127.7c-0.95-0.01-1.88,0-2.79,0.03
		c0-0.01,0-0.02,0-0.03c0.91-0.02,1.84-0.03,2.78-0.03L154.85,127.7z M146.95,128.05c-8.28,0.84-14.04,3.09-14.19,6.03
		c-0.22,4.2,11.09,8.22,25.22,8.97c14.13,0.75,25.8-2.06,26.03-6.26c0.12-2.29-3.18-4.52-8.5-6.2c0-0.01-0.01-0.03-0.01-0.04
		c0.46,0.15,0.92,0.29,1.35,0.45c4.78,1.7,7.35,3.76,7.25,5.8c-0.11,2.04-2.88,3.82-7.82,5c-4.93,1.19-11.43,1.64-18.3,1.28
		c-6.87-0.36-13.28-1.5-18.06-3.2c-4.78-1.7-7.35-3.76-7.25-5.8c0.11-2.04,2.88-3.82,7.82-5c1.93-0.46,4.11-0.82,6.45-1.05
		C146.94,128.03,146.94,128.04,146.95,128.05z M170.85,129.37c-0.85-0.18-1.73-0.35-2.64-0.51c0-0.01-0.01-0.02-0.01-0.03
		c0.9,0.15,1.78,0.32,2.64,0.5C170.84,129.34,170.85,129.35,170.85,129.37z M163.47,128.2c-0.97-0.11-1.96-0.2-2.97-0.27
		c0-0.01,0-0.02,0-0.03c1,0.07,1.99,0.16,2.96,0.27C163.46,128.18,163.46,128.19,163.47,128.2z M154.85,127.6
		c-0.94-0.01-1.87,0-2.77,0.03c0-0.01,0-0.02,0-0.03c0.91-0.02,1.83-0.03,2.77-0.03L154.85,127.6z M146.89,127.95
		c-8.43,0.84-14.3,3.13-14.46,6.11c-0.22,4.25,11.23,8.32,25.54,9.08c14.31,0.76,26.13-2.09,26.35-6.34
		c0.12-2.35-3.33-4.65-8.85-6.36c0-0.01-0.01-0.03-0.01-0.04c0.56,0.17,1.1,0.35,1.62,0.53c4.84,1.72,7.44,3.81,7.34,5.87
		c-0.11,2.07-2.92,3.86-7.91,5.07c-4.99,1.2-11.57,1.66-18.53,1.29c-6.95-0.37-13.45-1.52-18.29-3.24
		c-4.84-1.72-7.44-3.81-7.34-5.87c0.11-2.07,2.92-3.86,7.91-5.07c1.98-0.48,4.21-0.83,6.62-1.07
		C146.88,127.93,146.89,127.94,146.89,127.95z M170.81,129.25c-0.85-0.18-1.72-0.35-2.63-0.5c0-0.01,0-0.02-0.01-0.03
		c0.9,0.15,1.77,0.32,2.62,0.49C170.8,129.22,170.81,129.24,170.81,129.25z M163.42,128.09c-0.96-0.1-1.93-0.19-2.92-0.26
		c0-0.01,0-0.02,0-0.03c0.98,0.07,1.95,0.16,2.91,0.26C163.41,128.07,163.41,128.08,163.42,128.09z M154.85,127.51
		c-0.93-0.01-1.85,0-2.76,0.02c0-0.01,0-0.02,0.01-0.03c0.9-0.02,1.82-0.03,2.75-0.02L154.85,127.51z M146.84,127.85
		c-8.58,0.84-14.56,3.17-14.72,6.2c-0.23,4.3,11.37,8.43,25.85,9.19c14.48,0.77,26.45-2.11,26.68-6.42
		c0.13-2.42-3.47-4.77-9.22-6.51c0-0.01-0.01-0.03-0.01-0.04c0.66,0.2,1.29,0.4,1.89,0.62c4.9,1.74,7.54,3.85,7.43,5.94
		c-0.11,2.09-2.96,3.91-8.01,5.13c-5.06,1.22-11.72,1.68-18.76,1.31c-7.04-0.37-13.61-1.54-18.51-3.28
		c-4.9-1.74-7.54-3.85-7.43-5.94c0.11-2.09,2.96-3.91,8.01-5.13c2.03-0.49,4.32-0.85,6.78-1.09
		C146.83,127.83,146.83,127.84,146.84,127.85z M170.77,129.13c-0.84-0.18-1.72-0.34-2.61-0.49c0-0.01-0.01-0.02-0.01-0.03
		c0.89,0.15,1.76,0.31,2.61,0.49C170.76,129.11,170.77,129.12,170.77,129.13z M163.36,127.99c-0.94-0.1-1.9-0.18-2.87-0.25
		c0-0.01,0-0.02,0-0.03c0.96,0.07,1.92,0.15,2.86,0.25C163.35,127.97,163.36,127.98,163.36,127.99z M154.84,127.41
		c-0.93-0.01-1.84,0-2.73,0.02c0-0.01,0-0.02,0.01-0.03c0.9-0.02,1.81-0.03,2.73-0.02L154.84,127.41z M146.78,127.75
		c-8.73,0.85-14.83,3.2-14.99,6.28c-0.23,4.36,11.51,8.53,26.18,9.3c14.66,0.77,26.78-2.14,27.01-6.5c0.13-2.48-3.62-4.9-9.59-6.67
		c0-0.01-0.01-0.03-0.01-0.04c0.75,0.22,1.48,0.46,2.17,0.7c4.96,1.76,7.63,3.9,7.52,6.02c-0.11,2.12-2.99,3.96-8.11,5.19
		c-5.12,1.23-11.86,1.7-18.99,1.32c-7.13-0.38-13.78-1.55-18.74-3.32c-4.96-1.76-7.63-3.9-7.52-6.02c0.11-2.12,2.99-3.96,8.11-5.19
		c2.08-0.5,4.42-0.87,6.95-1.11C146.77,127.72,146.77,127.74,146.78,127.75z M170.73,129.01c-0.84-0.17-1.71-0.33-2.6-0.48
		c0-0.01-0.01-0.02-0.01-0.03c0.89,0.15,1.76,0.31,2.6,0.48C170.72,128.99,170.73,129,170.73,129.01z M163.3,127.88
		c-0.92-0.1-1.86-0.18-2.82-0.25c0,0,0,0,0-0.01c0-0.01,0-0.01,0-0.02c0.95,0.07,1.88,0.15,2.8,0.24
		C163.29,127.86,163.3,127.87,163.3,127.88z M154.84,127.31c-0.92-0.01-1.82,0-2.71,0.02c0-0.01,0-0.02,0.01-0.03
		c0.89-0.02,1.79-0.03,2.7-0.02L154.84,127.31z M146.72,127.64c-8.89,0.85-15.1,3.24-15.27,6.37c-0.23,4.41,11.66,8.64,26.5,9.42
		c14.85,0.78,27.11-2.17,27.35-6.58c0.13-2.55-3.78-5.03-9.97-6.83c0-0.01-0.01-0.03-0.01-0.04c0.86,0.25,1.68,0.51,2.46,0.78
		c5.02,1.79,7.73,3.95,7.61,6.09c-0.11,2.14-3.03,4.01-8.21,5.26c-5.18,1.25-12.01,1.72-19.22,1.34
		c-7.22-0.38-13.95-1.57-18.98-3.36s-7.73-3.95-7.61-6.09c0.11-2.14,3.03-4.01,8.21-5.26c2.13-0.51,4.53-0.89,7.12-1.14
		C146.71,127.62,146.72,127.63,146.72,127.64z M170.69,128.89c-0.84-0.17-1.71-0.33-2.6-0.47c0-0.01-0.01-0.02-0.01-0.03
		c0.89,0.14,1.75,0.3,2.6,0.47C170.68,128.87,170.69,128.88,170.69,128.89z M163.25,127.78c-0.9-0.09-1.83-0.17-2.76-0.24
		c0-0.01,0-0.02,0-0.03c0.93,0.07,1.84,0.15,2.74,0.24C163.23,127.76,163.24,127.77,163.25,127.78z M154.84,127.21
		c-0.91-0.01-1.8,0-2.68,0.02c0-0.01,0.01-0.02,0.01-0.03c0.88-0.02,1.77-0.02,2.67-0.01L154.84,127.21z M170.65,128.77
		c-0.84-0.17-1.71-0.32-2.6-0.47c0-0.01-0.01-0.02-0.01-0.03c0.89,0.14,1.75,0.3,2.6,0.47
		C170.64,128.75,170.65,128.76,170.65,128.77z M163.19,127.67c-0.89-0.09-1.79-0.17-2.7-0.23c0-0.01,0-0.02,0-0.03
		c0.91,0.06,1.8,0.14,2.69,0.23C163.17,127.65,163.18,127.66,163.19,127.67z M154.84,127.11c-0.9-0.01-1.78,0-2.65,0.01
		c0-0.01,0.01-0.02,0.01-0.03c0.87-0.02,1.75-0.02,2.64-0.01L154.84,127.11z M146.61,127.43c-9.21,0.86-15.65,3.32-15.82,6.54
		c-0.24,4.52,11.95,8.85,27.16,9.66c15.22,0.8,27.79-2.22,28.03-6.74c0.14-2.68-4.09-5.3-10.74-7.15c0-0.01-0.01-0.03-0.02-0.04
		c1.07,0.3,2.08,0.61,3.04,0.95c5.15,1.83,7.92,4.05,7.8,6.24c-0.12,2.2-3.11,4.11-8.42,5.39c-5.31,1.28-12.31,1.77-19.7,1.37
		c-7.4-0.39-14.3-1.61-19.45-3.44c-5.15-1.83-7.92-4.05-7.8-6.24c0.12-2.2,3.1-4.11,8.42-5.39c2.23-0.54,4.77-0.93,7.5-1.18
		L146.61,127.43z M170.61,128.65c-0.85-0.17-1.72-0.32-2.61-0.46c-0.01-0.01-0.01-0.02-0.02-0.03c0.89,0.14,1.76,0.29,2.61,0.46
		C170.6,128.63,170.6,128.64,170.61,128.65z M163.12,127.56c-0.87-0.09-1.75-0.16-2.64-0.22c0-0.01,0-0.02,0-0.03
		c0.88,0.06,1.76,0.14,2.63,0.22C163.11,127.54,163.12,127.55,163.12,127.56z M154.84,127c-0.89-0.01-1.76-0.01-2.62,0.01
		c0-0.01,0.01-0.02,0.01-0.03c0.86-0.02,1.73-0.02,2.61-0.01L154.84,127z M146.61,127.32c-9.4,0.85-16,3.36-16.17,6.64
		c-0.24,4.58,12.1,8.96,27.5,9.78c15.41,0.81,28.14-2.25,28.38-6.82c0.15-2.75-4.25-5.43-11.13-7.31c0-0.01-0.01-0.03-0.01-0.04
		c1.17,0.32,2.29,0.66,3.33,1.03c5.21,1.85,8.02,4.1,7.9,6.32c-0.12,2.22-3.14,4.16-8.52,5.45c-5.38,1.29-12.46,1.79-19.95,1.39
		c-7.49-0.4-14.48-1.63-19.69-3.49c-5.21-1.85-8.02-4.1-7.9-6.32c0.12-2.22,3.14-4.16,8.52-5.45c2.3-0.55,4.92-0.96,7.74-1.21
		L146.61,127.32z M170.57,128.53c-0.85-0.16-1.73-0.32-2.63-0.46c-0.01-0.01-0.02-0.02-0.02-0.03c0.9,0.14,1.78,0.29,2.65,0.46
		C170.56,128.51,170.56,128.52,170.57,128.53z M163.06,127.45c-0.85-0.08-1.71-0.16-2.58-0.22c0-0.01,0-0.02,0-0.03
		c0.86,0.06,1.72,0.13,2.56,0.21C163.05,127.43,163.06,127.44,163.06,127.45z M154.84,126.9c-0.87-0.01-1.74-0.01-2.58,0.01
		c0-0.01,0.01-0.02,0.01-0.03c0.85-0.01,1.71-0.02,2.58-0.01L154.84,126.9z M146.62,127.2c-9.6,0.85-16.35,3.39-16.53,6.73
		c-0.24,4.63,12.25,9.07,27.84,9.9s28.49-2.28,28.73-6.91c0.15-2.82-4.42-5.57-11.53-7.47c0-0.01-0.01-0.03-0.01-0.04
		c1.28,0.34,2.5,0.71,3.63,1.12c5.28,1.88,8.12,4.15,8,6.4c-0.12,2.25-3.18,4.21-8.63,5.52c-5.44,1.31-12.62,1.81-20.2,1.41
		c-7.58-0.4-14.66-1.65-19.94-3.53c-5.28-1.88-8.12-4.15-8-6.4c0.12-2.25,3.18-4.21,8.63-5.52c2.37-0.57,5.07-0.99,7.99-1.24
		L146.62,127.2z M170.52,128.41c-0.87-0.17-1.76-0.32-2.68-0.46c-0.01-0.01-0.01-0.02-0.02-0.03c0.92,0.14,1.81,0.29,2.69,0.46
		C170.52,128.38,170.52,128.39,170.52,128.41z M163,127.34c-0.83-0.08-1.67-0.15-2.52-0.21c0-0.01,0-0.02,0-0.03
		c0.84,0.06,1.68,0.13,2.5,0.21C162.99,127.32,162.99,127.33,163,127.34z M154.83,126.79c-0.86-0.01-1.71-0.01-2.55,0.01
		c0-0.01,0.01-0.02,0.01-0.03c0.84-0.01,1.68-0.02,2.54-0.01L154.83,126.79z M146.62,127.09c-9.8,0.85-16.71,3.43-16.89,6.83
		c-0.25,4.69,12.4,9.19,28.19,10.02c15.79,0.83,28.84-2.3,29.09-7c0.15-2.89-4.58-5.7-11.93-7.63c0-0.01-0.01-0.03-0.01-0.04
		c1.4,0.37,2.72,0.76,3.94,1.2c5.34,1.9,8.22,4.2,8.1,6.48c-0.12,2.28-3.22,4.27-8.73,5.59c-5.51,1.33-12.77,1.83-20.45,1.43
		c-7.67-0.41-14.84-1.67-20.18-3.57c-5.34-1.9-8.22-4.2-8.1-6.48c0.12-2.28,3.22-4.27,8.73-5.59c2.44-0.59,5.23-1.01,8.24-1.27
		L146.62,127.09z M170.48,128.28c-0.88-0.17-1.79-0.32-2.72-0.46c-0.01-0.01-0.01-0.02-0.02-0.03c0.93,0.14,1.84,0.29,2.73,0.46
		C170.47,128.26,170.48,128.27,170.48,128.28z M162.93,127.23c-0.81-0.08-1.63-0.15-2.45-0.2c0-0.01,0-0.02,0-0.03
		c0.82,0.06,1.63,0.12,2.44,0.2C162.92,127.21,162.93,127.22,162.93,127.23z M154.83,126.69c-0.85-0.01-1.69-0.01-2.51,0
		c0-0.01,0.01-0.02,0.01-0.03c0.83-0.01,1.66-0.01,2.5,0L154.83,126.69z M146.63,126.97c-10,0.84-17.07,3.47-17.25,6.93
		c-0.25,4.75,12.55,9.3,28.54,10.15c15.99,0.84,29.2-2.33,29.45-7.08c0.16-2.96-4.75-5.84-12.34-7.8c0-0.01-0.01-0.03-0.01-0.04
		c1.51,0.39,2.93,0.82,4.24,1.28c5.41,1.92,8.32,4.25,8.2,6.56c-0.12,2.31-3.26,4.32-8.84,5.66c-5.58,1.34-12.93,1.85-20.7,1.44
		c-7.77-0.41-15.03-1.69-20.43-3.62c-5.41-1.92-8.32-4.25-8.2-6.56c0.12-2.31,3.26-4.32,8.84-5.66c2.51-0.6,5.39-1.04,8.5-1.3
		L146.63,126.97z M170.44,128.16c-0.89-0.17-1.81-0.32-2.75-0.46c-0.01-0.01-0.01-0.02-0.02-0.03c0.94,0.14,1.86,0.29,2.76,0.46
		C170.43,128.13,170.43,128.15,170.44,128.16z M162.87,127.11c-0.79-0.07-1.58-0.14-2.39-0.2c0-0.01,0-0.02,0-0.03
		c0.8,0.06,1.59,0.12,2.37,0.19C162.86,127.1,162.86,127.1,162.87,127.11z M154.83,126.58c-0.84-0.01-1.66-0.01-2.48,0
		c0-0.01,0.01-0.02,0.01-0.03c0.81-0.01,1.64-0.01,2.47,0L154.83,126.58z M146.64,126.85c-10.21,0.84-17.43,3.51-17.62,7.03
		c-0.25,4.81,12.71,9.42,28.9,10.27c16.19,0.86,29.56-2.36,29.82-7.17c0.16-3.03-4.92-5.98-12.75-7.96c0-0.01-0.01-0.03-0.01-0.04
		c1.62,0.41,3.15,0.87,4.55,1.36c5.47,1.95,8.42,4.3,8.3,6.64c-0.12,2.34-3.3,4.37-8.95,5.73c-5.65,1.36-13.09,1.88-20.96,1.46
		c-7.87-0.42-15.21-1.72-20.69-3.66c-5.47-1.95-8.42-4.3-8.3-6.64c0.12-2.34,3.3-4.37,8.95-5.73c2.59-0.62,5.55-1.07,8.75-1.33
		L146.64,126.85z M170.39,128.03c-0.91-0.17-1.84-0.32-2.79-0.46c-0.01-0.01-0.01-0.02-0.02-0.03c0.95,0.14,1.88,0.29,2.8,0.46
		C170.38,128.01,170.39,128.02,170.39,128.03z M162.8,127c-0.77-0.07-1.54-0.13-2.32-0.19c0-0.01,0-0.02,0-0.03
		c0.78,0.05,1.55,0.12,2.31,0.19C162.79,126.98,162.8,126.99,162.8,127z M154.83,126.47c-0.82-0.01-1.64-0.01-2.44,0
		c0-0.01,0.01-0.02,0.01-0.03c0.8-0.01,1.61-0.01,2.43,0L154.83,126.47z M146.64,126.73c-10.42,0.84-17.8,3.55-17.99,7.13
		c-0.26,4.87,12.87,9.53,29.26,10.4c16.39,0.87,29.93-2.39,30.19-7.26c0.16-3.1-5.09-6.12-13.16-8.12c0-0.01-0.01-0.03-0.01-0.04
		c1.74,0.43,3.37,0.91,4.87,1.44c5.54,1.97,8.53,4.36,8.4,6.72c-0.12,2.37-3.34,4.43-9.06,5.8c-5.72,1.38-13.25,1.9-21.22,1.48
		c-7.96-0.42-15.4-1.74-20.94-3.71c-5.54-1.97-8.53-4.36-8.4-6.72c0.12-2.37,3.34-4.43,9.06-5.8c2.66-0.64,5.71-1.09,9.02-1.35
		L146.64,126.73z M170.35,127.9c-0.92-0.16-1.86-0.32-2.82-0.46c-0.01-0.01-0.01-0.02-0.02-0.03c0.96,0.14,1.91,0.29,2.83,0.46
		C170.34,127.88,170.34,127.89,170.35,127.9z M162.73,126.88c-0.74-0.07-1.5-0.13-2.26-0.18c0-0.01,0-0.02,0-0.03
		c0.75,0.05,1.5,0.11,2.24,0.18C162.72,126.86,162.73,126.87,162.73,126.88z M154.83,126.36c-0.81-0.01-1.61-0.01-2.41,0
		c0-0.01,0.01-0.02,0.01-0.03c0.79-0.01,1.59-0.01,2.4,0L154.83,126.36z M146.65,126.61c-10.63,0.83-18.17,3.58-18.36,7.23
		c-0.26,4.93,13.03,9.65,29.62,10.53s30.3-2.42,30.57-7.35c0.17-3.17-5.27-6.26-13.59-8.29c0-0.01-0.01-0.03-0.01-0.04
		c1.86,0.45,3.6,0.96,5.18,1.52c5.61,1.99,8.63,4.41,8.5,6.81c-0.13,2.39-3.38,4.48-9.17,5.87c-5.79,1.39-13.42,1.92-21.48,1.5
		c-8.06-0.43-15.59-1.76-21.2-3.75c-5.61-1.99-8.63-4.41-8.5-6.81c0.13-2.39,3.38-4.48,9.17-5.87c2.73-0.66,5.88-1.12,9.28-1.38
		L146.65,126.61z M170.3,127.78c-0.93-0.16-1.88-0.32-2.85-0.45c-0.01-0.01-0.01-0.02-0.02-0.03c0.97,0.14,1.92,0.29,2.86,0.45
		C170.29,127.75,170.3,127.76,170.3,127.78z M162.66,126.76c-0.72-0.07-1.45-0.12-2.19-0.17c0-0.01,0-0.02,0-0.03
		c0.73,0.05,1.46,0.11,2.17,0.17C162.65,126.75,162.66,126.76,162.66,126.76z M154.83,126.25c-0.8-0.01-1.59-0.01-2.37,0
		c0-0.01,0.01-0.02,0.01-0.03c0.78-0.01,1.57-0.01,2.36,0.01L154.83,126.25z M146.66,126.49c-10.84,0.83-18.55,3.62-18.75,7.33
		c-0.26,4.99,13.19,9.77,29.99,10.66c16.8,0.89,30.68-2.45,30.95-7.44c0.17-3.24-5.45-6.4-14.01-8.45c0-0.01-0.01-0.03-0.01-0.04
		c1.98,0.47,3.83,1.01,5.5,1.6c5.68,2.02,8.74,4.47,8.61,6.89c-0.13,2.42-3.43,4.54-9.29,5.95c-5.86,1.41-13.58,1.95-21.75,1.52
		c-8.16-0.43-15.79-1.78-21.47-3.8c-5.68-2.02-8.74-4.47-8.61-6.89c0.13-2.42,3.43-4.54,9.29-5.95c2.81-0.67,6.04-1.15,9.55-1.41
		L146.66,126.49z M170.26,127.65c-0.94-0.16-1.9-0.31-2.88-0.45c-0.01-0.01-0.01-0.02-0.02-0.03c0.98,0.14,1.94,0.29,2.89,0.45
		C170.25,127.62,170.25,127.63,170.26,127.65z M162.58,126.62c0,0.01,0.01,0.02,0.01,0.02c-0.7-0.06-1.41-0.12-2.12-0.17
		c0-0.01,0-0.02,0-0.03C161.18,126.5,161.88,126.56,162.58,126.62C162.58,126.62,162.58,126.62,162.58,126.62z M154.82,126.13
		c-0.79-0.01-1.57-0.01-2.33,0c0-0.01,0.01-0.02,0.01-0.03c0.77-0.01,1.54,0,2.33,0.01L154.82,126.13z M170.21,127.51
		c-0.95-0.16-1.92-0.31-2.91-0.45c-0.01-0.01-0.01-0.02-0.02-0.03c0.99,0.14,1.96,0.28,2.91,0.45
		C170.2,127.49,170.2,127.5,170.21,127.51z M162.53,126.53c-0.68-0.06-1.36-0.11-2.05-0.16c0-0.01,0-0.02,0-0.03
		c0.69,0.05,1.36,0.1,2.04,0.16C162.52,126.51,162.52,126.52,162.53,126.53z M154.82,126.02c-0.78-0.01-1.54-0.01-2.3-0.01
		c0-0.01,0.01-0.02,0.01-0.03c0.76-0.01,1.52,0,2.29,0.01L154.82,126.02z M146.67,126.24c-2.55,0.19-4.93,0.48-7.09,0.86
		c0.04-0.02,0.08-0.04,0.12-0.06c2.16-0.38,4.5-0.66,6.97-0.83L146.67,126.24z M137.98,127.41c-6.51,1.36-10.69,3.62-10.83,6.37
		c-0.27,5.12,13.52,10.02,30.74,10.93c17.22,0.91,31.45-2.51,31.72-7.63c0.18-3.39-5.81-6.68-14.87-8.78c0-0.01-0.01-0.03-0.01-0.04
		c2.22,0.51,4.29,1.1,6.15,1.77c5.82,2.07,8.96,4.58,8.83,7.06c-0.13,2.49-3.51,4.65-9.52,6.09c-6.01,1.44-13.92,2-22.29,1.56
		c-8.37-0.44-16.18-1.83-22-3.89s-8.96-4.58-8.83-7.06c0.13-2.49,3.51-4.65,9.52-6.09c0.43-0.1,0.87-0.2,1.31-0.29
		C137.92,127.4,137.95,127.4,137.98,127.41z M170.16,127.38c-0.96-0.16-1.93-0.31-2.93-0.45c-0.01-0.01-0.01-0.02-0.02-0.03
		c1,0.13,1.98,0.28,2.94,0.45C170.15,127.36,170.16,127.37,170.16,127.38z M162.46,126.4c-0.66-0.06-1.32-0.11-1.99-0.15
		c0-0.01,0-0.02,0-0.03c0.66,0.04,1.32,0.1,1.97,0.15C162.45,126.39,162.46,126.4,162.46,126.4z M154.82,125.9
		c-0.76-0.01-1.52-0.01-2.27-0.01c0-0.01,0-0.02,0.01-0.03c0.75-0.01,1.5,0,2.26,0.01L154.82,125.9z M146.68,126.12
		c-2.38,0.17-4.61,0.43-6.67,0.77c0.03-0.02,0.06-0.04,0.1-0.05c2.06-0.33,4.26-0.59,6.57-0.75L146.68,126.12z M170.11,127.25
		c-0.96-0.16-1.95-0.31-2.96-0.45c-0.01-0.01-0.01-0.02-0.02-0.03c1.01,0.13,1.99,0.28,2.96,0.44
		C170.1,127.23,170.11,127.24,170.11,127.25z M162.4,126.28c-0.64-0.05-1.28-0.1-1.93-0.15c0-0.01,0-0.02,0-0.03
		c0.64,0.04,1.28,0.09,1.91,0.15C162.39,126.26,162.39,126.27,162.4,126.28z M154.82,125.78c-0.75-0.01-1.5-0.01-2.24-0.01
		c0-0.01,0-0.02,0.01-0.03c0.74,0,1.48,0,2.23,0.01L154.82,125.78z M146.69,125.99c-2.24,0.16-4.37,0.39-6.33,0.7
		c0.02-0.01,0.05-0.03,0.07-0.05c1.97-0.3,4.07-0.53,6.26-0.68L146.69,125.99z M137.51,127.2c-6.69,1.39-10.99,3.71-11.14,6.54
		c-0.28,5.24,13.86,10.27,31.51,11.2c17.65,0.93,32.24-2.58,32.51-7.82c0.19-3.54-6.18-6.97-15.76-9.12c0-0.01-0.01-0.03-0.01-0.04
		c2.47,0.55,4.76,1.19,6.81,1.92c5.97,2.12,9.18,4.69,9.05,7.24c-0.13,2.55-3.6,4.77-9.76,6.25c-6.16,1.48-14.27,2.05-22.85,1.59
		c-8.57-0.45-16.58-1.87-22.55-3.99c-5.97-2.12-9.18-4.69-9.05-7.24c0.13-2.55,3.6-4.77,9.76-6.25c0.47-0.11,0.95-0.22,1.43-0.32
		C137.48,127.18,137.5,127.19,137.51,127.2z M170.06,127.12c-0.97-0.16-1.97-0.31-2.98-0.44c-0.01-0.01-0.01-0.02-0.02-0.03
		c1.01,0.13,2.01,0.28,2.99,0.44C170.05,127.09,170.06,127.1,170.06,127.12z M162.34,126.16c-0.62-0.05-1.24-0.1-1.86-0.14
		c0-0.01,0-0.02,0-0.03c0.62,0.04,1.24,0.09,1.85,0.14C162.33,126.14,162.33,126.15,162.34,126.16z M154.82,125.66
		c-0.74-0.01-1.48-0.01-2.21-0.01c0-0.01,0-0.02,0.01-0.03c0.73,0,1.46,0,2.2,0.01L154.82,125.66z M146.69,125.86
		c-2.13,0.14-4.16,0.36-6.05,0.64c0.02-0.02,0.05-0.03,0.07-0.05c1.89-0.28,3.89-0.48,5.98-0.62L146.69,125.86z M137.35,127.08
		c-6.83,1.41-11.23,3.77-11.38,6.64c-0.28,5.31,14.03,10.4,31.9,11.34c17.87,0.94,32.64-2.61,32.92-7.92
		c0.19-3.61-6.37-7.12-16.2-9.29c0-0.01-0.01-0.03-0.01-0.04c2.6,0.57,5,1.24,7.15,2c6.04,2.15,9.29,4.75,9.16,7.33
		c-0.14,2.58-3.64,4.82-9.88,6.32c-6.23,1.5-14.45,2.07-23.13,1.61c-8.68-0.46-16.79-1.89-22.83-4.04
		c-6.04-2.15-9.29-4.75-9.16-7.33c0.14-2.58,3.64-4.82,9.88-6.32c0.5-0.12,1.03-0.23,1.55-0.34
		C137.33,127.06,137.34,127.07,137.35,127.08z M170.01,126.98c-0.98-0.16-1.98-0.31-3-0.44c-0.01-0.01-0.01-0.02-0.02-0.03
		c1.02,0.13,2.02,0.28,3.01,0.44C170,126.96,170,126.97,170.01,126.98z M162.28,126.03c-0.6-0.05-1.2-0.1-1.81-0.14
		c0-0.01,0-0.02,0-0.03c0.6,0.04,1.2,0.09,1.79,0.14C162.27,126.02,162.27,126.03,162.28,126.03z M154.81,125.54
		c-0.73-0.01-1.46-0.02-2.18-0.01c0-0.01,0-0.02,0.01-0.03c0.72,0,1.44,0,2.17,0.02L154.81,125.54z M146.7,125.73
		c-2.04,0.13-3.98,0.33-5.8,0.59c0.02-0.01,0.04-0.03,0.06-0.04c1.82-0.25,3.74-0.44,5.74-0.57L146.7,125.73z M169.95,126.84
		c-0.99-0.16-1.99-0.3-3.02-0.44c-0.01-0.01-0.01-0.02-0.02-0.03c1.03,0.13,2.04,0.28,3.03,0.43
		C169.94,126.82,169.95,126.83,169.95,126.84z M162.22,125.91c-0.58-0.05-1.16-0.09-1.75-0.13c0-0.01,0-0.02,0-0.03
		c0.58,0.04,1.16,0.08,1.74,0.13C162.21,125.89,162.22,125.9,162.22,125.91z M154.81,125.42c-0.72-0.01-1.44-0.02-2.15-0.01
		c0-0.01,0-0.02,0.01-0.03c0.71,0,1.43,0,2.15,0.02L154.81,125.42z M146.71,125.6c-1.95,0.12-3.81,0.31-5.56,0.54
		c0.02-0.01,0.04-0.03,0.06-0.04c1.75-0.23,3.6-0.41,5.51-0.53L146.71,125.6z M137.07,126.82c-7.14,1.44-11.75,3.88-11.91,6.86
		c-0.29,5.44,14.38,10.66,32.7,11.62c18.32,0.97,33.46-2.67,33.74-8.11c0.2-3.76-6.75-7.41-17.11-9.63c0-0.01-0.01-0.03-0.01-0.04
		c2.86,0.61,5.49,1.33,7.83,2.16c6.19,2.2,9.53,4.87,9.39,7.51s-3.74,4.94-10.13,6.48c-6.39,1.54-14.81,2.12-23.71,1.65
		c-8.9-0.47-17.21-1.94-23.4-4.14c-6.19-2.2-9.53-4.87-9.39-7.51c0.14-2.64,3.74-4.95,10.13-6.48c0.6-0.14,1.21-0.28,1.84-0.4
		C137.05,126.8,137.06,126.81,137.07,126.82z M169.9,126.7c-0.99-0.16-2.01-0.3-3.04-0.43c-0.01-0.01-0.01-0.02-0.02-0.03
		c1.03,0.13,2.05,0.27,3.04,0.43C169.89,126.68,169.89,126.69,169.9,126.7z M162.17,125.78c-0.56-0.05-1.13-0.09-1.69-0.13
		c0-0.01,0-0.02,0-0.03c0.56,0.04,1.12,0.08,1.68,0.12C162.16,125.76,162.16,125.77,162.17,125.78z M154.81,125.3
		c-0.72-0.01-1.42-0.02-2.13-0.01c0-0.01,0-0.02,0-0.03c0.7,0,1.41,0,2.12,0.02L154.81,125.3z M146.71,125.47
		c-1.86,0.12-3.65,0.28-5.34,0.5c0.02-0.01,0.04-0.03,0.06-0.04c1.69-0.21,3.46-0.37,5.29-0.49L146.71,125.47z M136.95,126.68
		c-7.32,1.45-12.04,3.93-12.2,6.97c-0.29,5.51,14.56,10.79,33.11,11.77c18.55,0.98,33.87-2.71,34.16-8.22
		c0.2-3.84-6.95-7.57-17.57-9.8c0-0.01-0.01-0.03-0.01-0.04c2.99,0.63,5.74,1.38,8.17,2.24c6.27,2.23,9.64,4.93,9.5,7.61
		c-0.14,2.68-3.78,5.01-10.25,6.56c-6.47,1.56-14.99,2.15-24,1.67c-9.01-0.48-17.42-1.97-23.69-4.19c-6.27-2.23-9.64-4.93-9.5-7.61
		c0.14-2.68,3.78-5.01,10.25-6.56c0.65-0.16,1.33-0.3,2.01-0.44C136.93,126.66,136.94,126.67,136.95,126.68z M169.84,126.56
		c-1-0.16-2.02-0.3-3.06-0.43c-0.01-0.01-0.01-0.02-0.02-0.03c1.04,0.13,2.06,0.27,3.06,0.43
		C169.83,126.54,169.84,126.55,169.84,126.56z M162.11,125.65c-0.54-0.04-1.09-0.08-1.64-0.12c0-0.01,0-0.02,0-0.03
		c0.55,0.04,1.09,0.08,1.63,0.12C162.11,125.64,162.11,125.64,162.11,125.65z M154.81,125.17c-0.71-0.01-1.41-0.02-2.1-0.02
		c0-0.01,0-0.02,0-0.03c0.69,0,1.39,0.01,2.1,0.02L154.81,125.17z M146.72,125.34c-1.79,0.11-3.5,0.26-5.14,0.46
		c0.02-0.01,0.03-0.03,0.05-0.04c1.63-0.2,3.33-0.35,5.09-0.45L146.72,125.34z M136.85,126.54c-7.5,1.47-12.36,3.99-12.52,7.09
		c-0.29,5.58,14.74,10.92,33.52,11.91c18.78,0.99,34.29-2.74,34.59-8.32c0.21-3.92-7.14-7.72-18.04-9.98c0-0.01-0.01-0.03-0.01-0.04
		c3.12,0.64,5.99,1.42,8.52,2.32c6.35,2.26,9.76,4.99,9.62,7.7c-0.14,2.71-3.83,5.07-10.38,6.64c-6.55,1.57-15.18,2.18-24.3,1.7
		s-17.64-1.99-23.98-4.25c-6.35-2.26-9.76-4.99-9.62-7.7c0.14-2.71,3.83-5.07,10.38-6.64c0.71-0.17,1.45-0.33,2.21-0.48
		C136.84,126.52,136.84,126.53,136.85,126.54z M169.78,126.42c-1-0.15-2.03-0.3-3.07-0.43c-0.01-0.01-0.01-0.02-0.02-0.03
		c1.04,0.13,2.07,0.27,3.07,0.42C169.77,126.4,169.78,126.41,169.78,126.42z M162.06,125.52c-0.53-0.04-1.06-0.08-1.59-0.12
		c0-0.01,0-0.02,0-0.03c0.53,0.04,1.06,0.07,1.58,0.12C162.06,125.51,162.06,125.52,162.06,125.52z M154.81,125.04
		c-0.7-0.01-1.39-0.02-2.08-0.02c0-0.01,0-0.02,0-0.03c0.69,0,1.38,0.01,2.07,0.02L154.81,125.04z M146.73,125.2
		c-1.71,0.1-3.36,0.24-4.94,0.43c0.02-0.01,0.03-0.03,0.05-0.04c1.57-0.18,3.21-0.32,4.89-0.42L146.73,125.2z M136.77,126.39
		c-7.7,1.48-12.7,4.05-12.87,7.22c-0.3,5.65,14.92,11.06,33.94,12.06c19.01,1,34.72-2.77,35.02-8.42
		c0.21-3.99-7.34-7.87-18.51-10.15c0-0.01-0.01-0.03-0.01-0.04c3.25,0.66,6.25,1.47,8.87,2.4c6.43,2.28,9.89,5.05,9.74,7.8
		s-3.88,5.13-10.51,6.73c-6.63,1.59-15.37,2.2-24.6,1.72s-17.86-2.01-24.28-4.3c-6.43-2.28-9.89-5.05-9.74-7.8s3.88-5.13,10.51-6.73
		c0.78-0.19,1.59-0.36,2.43-0.52C136.76,126.37,136.76,126.38,136.77,126.39z M169.72,126.28c-1.01-0.15-2.03-0.29-3.08-0.42
		c-0.01-0.01-0.01-0.02-0.02-0.03c1.04,0.13,2.07,0.27,3.08,0.42C169.71,126.26,169.72,126.27,169.72,126.28z M162.01,125.39
		c-0.51-0.04-1.03-0.08-1.55-0.11c0-0.01,0-0.02,0-0.03c0.51,0.03,1.03,0.07,1.54,0.11C162.01,125.38,162.01,125.38,162.01,125.39z
		 M154.8,124.92c-0.69-0.01-1.38-0.02-2.06-0.02c0-0.01,0-0.02,0-0.03c0.68,0,1.36,0.01,2.05,0.02L154.8,124.92z M146.74,125.07
		c-1.64,0.09-3.23,0.23-4.75,0.4c0.02-0.01,0.03-0.03,0.05-0.04c1.52-0.17,3.09-0.3,4.71-0.39L146.74,125.07z M136.71,126.24
		c-7.92,1.49-13.07,4.12-13.24,7.35c-0.3,5.72,15.11,11.2,34.36,12.21c19.25,1.02,35.15-2.81,35.45-8.53
		c0.22-4.07-7.55-8.02-18.99-10.33c0-0.01-0.01-0.03-0.01-0.04c3.39,0.68,6.5,1.51,9.23,2.48c6.51,2.31,10.01,5.12,9.86,7.89
		c-0.15,2.78-3.92,5.19-10.64,6.81c-6.71,1.61-15.56,2.23-24.9,1.74c-9.35-0.49-18.08-2.04-24.58-4.35
		c-6.51-2.31-10.01-5.12-9.86-7.89c0.15-2.78,3.92-5.19,10.64-6.81c0.86-0.21,1.75-0.4,2.68-0.57
		C136.71,126.22,136.71,126.23,136.71,126.24z M169.66,126.13c-1.01-0.15-2.04-0.29-3.09-0.42c-0.01-0.01-0.01-0.02-0.02-0.03
		c1.05,0.12,2.08,0.26,3.09,0.41C169.65,126.11,169.66,126.12,169.66,126.13z M161.97,125.26c-0.5-0.04-1-0.08-1.5-0.11
		c0-0.01,0-0.02,0-0.03c0.5,0.03,1,0.07,1.49,0.11C161.96,125.24,161.96,125.25,161.97,125.26z M154.8,124.79
		c-0.68-0.01-1.36-0.02-2.04-0.02c0-0.01,0-0.02,0-0.03c0.67,0,1.35,0.01,2.03,0.02L154.8,124.79z M146.74,124.93
		c-1.58,0.09-3.1,0.21-4.57,0.37c0.02-0.01,0.03-0.03,0.05-0.04c1.46-0.15,2.97-0.27,4.52-0.36L146.74,124.93z M169.6,125.99
		c-1.01-0.15-2.05-0.29-3.1-0.41c-0.01-0.01-0.01-0.02-0.02-0.03c1.05,0.12,2.08,0.26,3.1,0.41
		C169.59,125.97,169.59,125.98,169.6,125.99z M161.92,125.13c-0.48-0.04-0.97-0.07-1.46-0.1c0-0.01,0-0.02,0-0.03
		c0.49,0.03,0.97,0.07,1.45,0.1C161.92,125.11,161.92,125.12,161.92,125.13z M154.8,124.65c-0.68-0.01-1.35-0.02-2.02-0.02
		c0-0.01,0-0.02,0-0.03c0.67,0,1.34,0.01,2.01,0.02L154.8,124.65z M146.75,124.79c-1.51,0.08-2.98,0.2-4.39,0.34
		c0.01-0.01,0.03-0.03,0.04-0.04c1.41-0.14,2.86-0.25,4.35-0.33L146.75,124.79z M136.67,125.92c-8.4,1.51-13.89,4.24-14.07,7.62
		c-0.31,5.86,15.49,11.48,35.22,12.52c19.73,1.04,36.03-2.88,36.34-8.74c0.22-4.23-7.96-8.34-19.95-10.68
		c0-0.01-0.01-0.03-0.01-0.04c3.66,0.71,7.02,1.6,9.94,2.64c6.67,2.37,10.26,5.24,10.11,8.09c-0.15,2.85-4.02,5.32-10.9,6.98
		c-6.88,1.65-15.95,2.29-25.53,1.78c-9.58-0.51-18.53-2.09-25.2-4.46c-6.67-2.37-10.26-5.24-10.11-8.09
		c0.15-2.85,4.02-5.32,10.9-6.98c1.04-0.25,2.12-0.48,3.25-0.68C136.67,125.89,136.67,125.91,136.67,125.92z M169.53,125.84
		c-1.01-0.15-2.05-0.28-3.1-0.41c-0.01-0.01-0.01-0.02-0.02-0.03c1.05,0.12,2.08,0.26,3.1,0.4
		C169.52,125.82,169.52,125.83,169.53,125.84z M161.88,124.99c-0.47-0.04-0.94-0.07-1.42-0.1c0-0.01,0-0.02,0-0.03
		c0.47,0.03,0.94,0.06,1.41,0.1C161.87,124.98,161.88,124.98,161.88,124.99z M154.8,124.52c-0.67-0.01-1.34-0.02-2-0.02
		c0-0.01,0-0.02,0-0.03c0.66,0,1.33,0.01,2,0.02L154.8,124.52z M146.76,124.65c-1.45,0.08-2.86,0.18-4.22,0.31
		c0.01-0.01,0.03-0.03,0.04-0.04c1.36-0.13,2.75-0.23,4.18-0.31L146.76,124.65z M136.68,125.75c-8.66,1.52-14.34,4.31-14.53,7.77
		c-0.31,5.93,15.68,11.62,35.66,12.67c19.97,1.06,36.48-2.91,36.79-8.85c0.23-4.31-8.17-8.5-20.44-10.86c0-0.01-0.01-0.03-0.01-0.04
		c3.8,0.73,7.29,1.64,10.31,2.72c6.75,2.4,10.38,5.31,10.23,8.19c-0.15,2.88-4.07,5.39-11.04,7.07c-6.97,1.68-16.14,2.32-25.84,1.8
		c-9.7-0.51-18.76-2.12-25.51-4.52c-6.75-2.4-10.38-5.31-10.23-8.19c0.15-2.88,4.07-5.39,11.04-7.07c1.14-0.27,2.33-0.52,3.58-0.74
		C136.68,125.72,136.68,125.74,136.68,125.75z M169.45,125.69c-1.01-0.15-2.05-0.28-3.1-0.4c0-0.01-0.01-0.02-0.01-0.03
		c1.05,0.12,2.08,0.25,3.09,0.4C169.44,125.67,169.45,125.68,169.45,125.69z M161.84,124.86c-0.46-0.04-0.92-0.07-1.38-0.1
		c0-0.01,0-0.02,0-0.03c0.46,0.03,0.92,0.06,1.38,0.1C161.83,124.84,161.83,124.85,161.84,124.86z M146.77,124.51
		c-1.39,0.07-2.74,0.17-4.06,0.29c0.01-0.01,0.03-0.03,0.04-0.04c1.31-0.12,2.65-0.22,4.02-0.28L146.77,124.51z M136.71,125.58
		c-8.94,1.52-14.82,4.37-15.01,7.91c-0.32,6.01,15.88,11.76,36.1,12.83c20.22,1.07,36.93-2.95,37.25-8.96
		c0.23-4.4-8.38-8.66-20.94-11.05c0-0.01-0.01-0.03-0.01-0.04c3.94,0.75,7.55,1.69,10.68,2.8c6.83,2.43,10.51,5.37,10.36,8.29
		c-0.15,2.92-4.12,5.46-11.18,7.15c-7.05,1.7-16.34,2.34-26.16,1.83c-9.82-0.52-18.99-2.14-25.83-4.57
		c-6.83-2.43-10.51-5.37-10.36-8.29c0.15-2.92,4.12-5.46,11.18-7.15c1.24-0.3,2.56-0.56,3.93-0.8
		C136.72,125.55,136.72,125.57,136.71,125.58z M169.38,125.54c-1.01-0.14-2.04-0.28-3.09-0.4c0-0.01-0.01-0.02-0.01-0.03
		c1.04,0.12,2.07,0.25,3.09,0.39C169.37,125.52,169.37,125.53,169.38,125.54z M161.8,124.72c-0.45-0.03-0.9-0.06-1.35-0.09
		c0-0.01,0-0.02,0-0.03c0.45,0.03,0.9,0.06,1.34,0.09C161.79,124.7,161.79,124.71,161.8,124.72z M160.44,124.49
		c0-0.01,0-0.02,0-0.03c0.44,0.03,0.88,0.06,1.32,0.09c0,0.01,0,0.02,0.01,0.03C161.32,124.55,160.88,124.52,160.44,124.49z
		 M160.42,124.34c0-0.01,0-0.02,0-0.03c0.43,0.03,0.86,0.06,1.29,0.09c0,0.01,0,0.02,0.01,0.03
		C161.29,124.39,160.86,124.36,160.42,124.34z M160.19,123.13c-0.19-0.74-0.51-1.8-1.05-3.65l2.17,1.96c0,0,0,0.75,0.16,1.77
		C161.05,123.19,160.62,123.16,160.19,123.13z M146.85,122.96c-0.85,0.03-1.69,0.07-2.52,0.12c0.87-1.01,1.78-2.19,2.71-3.54
		L146.85,122.96z M146.79,124.17l0,0.03c-1.27,0.06-2.51,0.14-3.72,0.25c0.01-0.01,0.03-0.03,0.04-0.04
		C144.31,124.31,145.53,124.23,146.79,124.17z M146.78,124.33l0,0.03c-1.33,0.07-2.63,0.16-3.89,0.27c0.01-0.01,0.03-0.03,0.04-0.04
		C144.18,124.48,145.47,124.4,146.78,124.33z M136.76,125.4c-9.23,1.53-15.32,4.44-15.51,8.07c-0.32,6.08,16.07,11.91,36.55,12.99
		c20.47,1.08,37.39-2.99,37.71-9.07c0.24-4.48-8.59-8.82-21.44-11.23c0-0.01-0.01-0.03-0.01-0.04c4.08,0.76,7.82,1.73,11.05,2.88
		c6.92,2.46,10.64,5.44,10.49,8.39s-4.17,5.53-11.31,7.24s-16.55,2.37-26.49,1.85c-9.94-0.53-19.23-2.17-26.15-4.63
		c-6.92-2.46-10.64-5.44-10.49-8.39c0.16-2.95,4.17-5.53,11.31-7.24c1.36-0.33,2.79-0.61,4.3-0.86
		C136.77,125.37,136.77,125.39,136.76,125.4z M169.3,125.38c-1.01-0.14-2.03-0.27-3.07-0.39c0-0.01-0.01-0.02-0.01-0.03
		c1.04,0.12,2.06,0.24,3.07,0.38C169.28,125.36,169.29,125.37,169.3,125.38z M166.15,124.83c0-0.01-0.01-0.02-0.01-0.03
		c1.03,0.11,2.04,0.24,3.04,0.37c0.01,0.01,0.01,0.02,0.02,0.03C168.2,125.07,167.18,124.95,166.15,124.83z M168.12,123.85
		c-0.81-0.1-1.63-0.19-2.45-0.27c-0.32-1.2-0.14-2.46-0.14-2.46l-0.7-1.86C164.83,119.25,166.79,122.14,168.12,123.85z
		 M137.25,115.71c1.96-3.41,3.46-5.38,4.55-10.75c1.09-5.38-2.22-8.38-4.81-11.32c-2.59-2.95-3.36-5.12-3.36-5.12
		s1.34,3.15,4.91,3.77c3.57,0.62,1.65,4.03,5.69,5.38c4.03,1.34,6.98-1.34,6.98-1.34s-1.55,3.05-0.31,3.15
		c1.24,0.1-1.45,3.1-2.22,3.36c-0.78,0.26,1.24,5.79,1.24,5.79s0.09-0.04,0.25-0.1l-0.64,1.03l-6.05,4.06c0,0-2.92,6.05-4.99,8.94
		c-0.29,0.41-0.55,0.78-0.77,1.11c-3.21,0.39-6.15,0.92-8.76,1.57c4.04-1.37,7.21-2.76,7.21-2.76l1.09-2.07
		C137.25,120.42,135.28,119.13,137.25,115.71z M196.11,137.42c-0.16,2.99-4.23,5.6-11.47,7.34c-7.24,1.74-16.77,2.41-26.85,1.87
		c-10.08-0.53-19.49-2.2-26.5-4.69c-7.01-2.49-10.79-5.52-10.63-8.51c0.16-2.99,4.23-5.6,11.47-7.34c1.48-0.36,3.07-0.67,4.73-0.93
		c-0.01,0.01-0.01,0.03-0.02,0.04c-9.56,1.53-15.9,4.51-16.09,8.24c-0.33,6.17,16.29,12.07,37.05,13.17
		c20.75,1.1,37.9-3.03,38.23-9.19c0.24-4.57-8.83-9-22-11.43c0-0.01-0.01-0.03-0.01-0.04c4.24,0.78,8.12,1.78,11.46,2.97
		C192.49,131.41,196.27,134.43,196.11,137.42z"/>
</g>
</svg>
